<svg width="35" height="35" viewBox="0 0 35 35" fill="none" xmlns="http://www.w3.org/2000/svg">
<rect x="0.5" y="0.5" width="34" height="34" rx="17" stroke="#012D22"/>
<path d="M15.4187 11.0477C15.1656 10.4149 14.5528 10 13.8713 10H11.5789C10.7069 10 10 10.7067 10 11.5788C10 18.991 16.009 25 23.4212 25C24.2933 25 25 24.293 25 23.421L25.0004 21.1283C25.0004 20.4468 24.5856 19.834 23.9528 19.5809L21.7558 18.7024C21.1874 18.4751 20.5402 18.5774 20.07 18.9693L19.5029 19.4422C18.8407 19.9941 17.8664 19.9502 17.2568 19.3407L15.6602 17.7425C15.0507 17.133 15.0056 16.1594 15.5575 15.4972L16.0303 14.9302C16.4222 14.46 16.5254 13.8126 16.2981 13.2442L15.4187 11.0477Z" stroke="#0D0D0D" stroke-width="1.5" stroke-linecap="round" stroke-linejoin="round"/>
</svg>
