<svg width="32" height="32" viewBox="0 0 32 32" fill="none" xmlns="http://www.w3.org/2000/svg">
<rect width="32" height="32" rx="10" fill="#F9FBFB"/>
<path d="M10.666 13.3335H21.3327M10.666 13.3335V19.2003C10.666 19.947 10.666 20.3202 10.8113 20.6054C10.9392 20.8563 11.143 21.0605 11.3939 21.1883C11.6788 21.3335 12.052 21.3335 12.7973 21.3335H19.2017C19.947 21.3335 20.3197 21.3335 20.6046 21.1883C20.8555 21.0605 21.0597 20.8563 21.1875 20.6054C21.3327 20.3205 21.3327 19.9478 21.3327 19.2025V13.3335M10.666 13.3335V12.8003C10.666 12.0536 10.666 11.6799 10.8113 11.3947C10.9392 11.1438 11.143 10.94 11.3939 10.8122C11.6791 10.6668 12.0527 10.6668 12.7995 10.6668H13.3327M21.3327 13.3335V12.7981C21.3327 12.0528 21.3327 11.6796 21.1875 11.3947C21.0597 11.1438 20.8555 10.94 20.6046 10.8122C20.3194 10.6668 19.9462 10.6668 19.1995 10.6668H18.666M13.3327 10.6668H18.666M13.3327 10.6668V9.3335M18.666 10.6668V9.3335M17.666 17.3335H15.9993M15.9993 17.3335H14.3327M15.9993 17.3335V15.6668M15.9993 17.3335V19.0002" stroke="#012D22" stroke-width="1.5" stroke-linecap="round" stroke-linejoin="round"/>
</svg>
