<svg width="32" height="32" viewBox="0 0 32 32" fill="none" xmlns="http://www.w3.org/2000/svg">
<rect y="0.000244141" width="32" height="32" rx="10" fill="#F9FBFB"/>
<path d="M10 15.3333V18.5334C10 19.2801 10 19.6533 10.1453 19.9385C10.2732 20.1894 10.477 20.3936 10.7279 20.5214C11.0128 20.6666 11.386 20.6666 12.1313 20.6666H19.8687C20.614 20.6666 20.9867 20.6666 21.2716 20.5214C21.5225 20.3936 21.727 20.1894 21.8548 19.9385C22 19.6536 22 19.2809 22 18.5356V15.3333M10 15.3333V13.9999M10 15.3333H22M10 13.9999V13.4667C10 12.72 10 12.3463 10.1453 12.0611C10.2732 11.8102 10.477 11.6064 10.7279 11.4786C11.0131 11.3333 11.3867 11.3333 12.1335 11.3333H19.8668C20.6135 11.3333 20.9864 11.3333 21.2716 11.4786C21.5225 11.6064 21.727 11.8102 21.8548 12.0611C22 12.3461 22 12.7192 22 13.4645V13.9999M10 13.9999H22M12.6667 17.9999H15.3333M22 15.3333V13.9999" stroke="#012D22" stroke-width="1.5" stroke-linecap="round" stroke-linejoin="round"/>
</svg>
