<svg width="32" height="32" viewBox="0 0 32 32" fill="none" xmlns="http://www.w3.org/2000/svg">
<rect width="32" height="32" rx="10" fill="#F9FBFB"/>
<g clip-path="url(#clip0_677_3206)">
<path d="M18.9218 17.874H16.926L17.3417 16.4923C17.4689 16.0791 17.4289 15.6326 17.2304 15.2486C17.0318 14.8646 16.6905 14.5739 16.2799 14.4389C16.1619 14.4 16.0372 14.3859 15.9136 14.3975C15.79 14.409 15.67 14.446 15.5614 14.506C15.4527 14.5661 15.3575 14.6479 15.282 14.7465C15.2064 14.845 15.1519 14.958 15.1221 15.0786L15.0581 15.3472C14.8168 16.3153 14.3172 17.1997 13.6124 17.906L13.2478 18.2642C13.1551 18.1475 13.0375 18.053 12.9036 17.9877C12.7697 17.9224 12.6228 17.8879 12.4738 17.8868H12.0068C11.7444 17.8867 11.4925 17.9901 11.3057 18.1745C11.1189 18.3589 11.0123 18.6094 11.0089 18.8719V22.9914C11.0089 23.2561 11.114 23.5099 11.3012 23.697C11.4883 23.8842 11.7422 23.9893 12.0068 23.9893H12.4738C12.6456 23.9889 12.8143 23.9439 12.9634 23.8587C13.1126 23.7735 13.237 23.6509 13.3246 23.5032L13.4141 23.5479C13.9923 23.8366 14.6294 23.9877 15.2756 23.9893H17.572C17.9517 23.9912 18.3258 23.8986 18.6608 23.7199C18.9958 23.5413 19.2811 23.2821 19.4911 22.9658C19.938 22.2976 20.1762 21.5116 20.1755 20.7078V19.115C20.1755 18.9509 20.143 18.7885 20.0799 18.6371C20.0167 18.4857 19.9241 18.3483 19.8075 18.2329C19.691 18.1175 19.5526 18.0263 19.4006 17.9647C19.2485 17.9031 19.0858 17.8723 18.9218 17.874ZM12.8064 22.9914C12.8064 23.0864 12.7687 23.1775 12.7015 23.2447C12.6343 23.3119 12.5432 23.3496 12.4482 23.3496H12.0068C11.9118 23.3496 11.8207 23.3119 11.7535 23.2447C11.6863 23.1775 11.6486 23.0864 11.6486 22.9914V18.8719C11.6486 18.7769 11.6863 18.6858 11.7535 18.6186C11.8207 18.5514 11.9118 18.5137 12.0068 18.5137H12.4738C12.5643 18.5201 12.649 18.5607 12.7107 18.6272C12.7724 18.6937 12.8066 18.7811 12.8064 18.8719V22.9914ZM19.5231 20.7078C19.5257 21.3904 19.3253 22.0584 18.9473 22.6268C18.7961 22.8529 18.5915 23.0383 18.3517 23.1666C18.1118 23.2949 17.844 23.3621 17.572 23.3624H15.2756C14.7294 23.3619 14.1908 23.2349 13.702 22.9914L13.4461 22.8635V18.9358L14.0346 18.3473C14.822 17.5601 15.3813 16.5741 15.653 15.4944L15.717 15.2321C15.736 15.1619 15.7819 15.1021 15.8449 15.0658C15.8772 15.0517 15.912 15.0444 15.9472 15.0444C15.9825 15.0444 16.0173 15.0517 16.0496 15.0658C16.1757 15.1077 16.2922 15.1741 16.3926 15.2611C16.493 15.3481 16.5753 15.454 16.6347 15.5728C16.6941 15.6917 16.7295 15.821 16.7389 15.9536C16.7482 16.0861 16.7314 16.2191 16.6893 16.3451L16.1519 18.1426C16.138 18.1903 16.1354 18.2406 16.1443 18.2894C16.1532 18.3383 16.1733 18.3844 16.2031 18.4241C16.2322 18.4646 16.2707 18.4974 16.3152 18.5197C16.3598 18.542 16.4092 18.5531 16.459 18.552H18.8834C18.9623 18.552 19.0405 18.5676 19.1135 18.5978C19.1864 18.628 19.2527 18.6723 19.3086 18.7282C19.3644 18.784 19.4087 18.8503 19.4389 18.9232C19.4691 18.9962 19.4847 19.0744 19.4847 19.1533L19.5231 20.7078Z" fill="#012D22" stroke="#012D22" stroke-width="0.5"/>
<path d="M14.0859 11.7073L13.8812 12.8908C13.8566 13.0217 13.87 13.157 13.9199 13.2806C13.9698 13.4041 14.054 13.5108 14.1627 13.588C14.2829 13.6777 14.4285 13.7269 14.5785 13.7287C14.6942 13.7269 14.8081 13.6984 14.9111 13.6456L16.0049 13.0827L17.0732 13.6456C17.1907 13.7076 17.3233 13.7351 17.4557 13.7249C17.5882 13.7147 17.715 13.6673 17.8216 13.588C17.9292 13.5113 18.0127 13.4057 18.0625 13.2834C18.1124 13.1611 18.1264 13.0271 18.1031 12.8972L17.924 11.7073L18.762 10.8758C18.8587 10.7842 18.9275 10.6671 18.9604 10.538C18.9932 10.4089 18.9888 10.2732 18.9475 10.1465C18.9061 10.02 18.8304 9.90751 18.7287 9.82164C18.627 9.73578 18.5034 9.67993 18.3718 9.66037L17.1756 9.48765L16.6446 8.3938C16.5849 8.27538 16.4935 8.17587 16.3805 8.10634C16.2676 8.03681 16.1376 8 16.0049 8C15.8723 8 15.7423 8.03681 15.6294 8.10634C15.5164 8.17587 15.425 8.27538 15.3653 8.3938L14.8343 9.47486L13.6381 9.64757C13.5065 9.66714 13.3829 9.72298 13.2812 9.80885C13.1795 9.89472 13.1038 10.0072 13.0624 10.1337C13.0185 10.2621 13.0126 10.4005 13.0455 10.5322C13.0785 10.6638 13.1487 10.7831 13.2479 10.8758L14.0859 11.7073ZM13.7021 10.2809L15.0646 10.0826C15.1262 10.0865 15.1875 10.0723 15.241 10.0416C15.2945 10.0108 15.3377 9.96502 15.3653 9.90984L16.0049 8.67526C16.0106 8.66301 16.0196 8.65263 16.0309 8.64535C16.0423 8.63808 16.0554 8.63421 16.0689 8.63421C16.0824 8.63421 16.0956 8.63808 16.1069 8.64535C16.1183 8.65263 16.1273 8.66301 16.1329 8.67526L16.7726 9.90984C16.7956 9.95655 16.8298 9.9968 16.8723 10.027C16.9147 10.0571 16.964 10.0762 17.0156 10.0826L18.3782 10.2809C18.3914 10.2836 18.4037 10.2897 18.4138 10.2987C18.4239 10.3077 18.4315 10.3192 18.4357 10.332C18.4419 10.3427 18.4452 10.3549 18.4452 10.3672C18.4452 10.3796 18.4419 10.3917 18.4357 10.4024L17.4506 11.3619C17.4134 11.3991 17.3853 11.4445 17.3686 11.4945C17.352 11.5445 17.3472 11.5976 17.3547 11.6498L17.5914 12.9995C17.5957 13.0131 17.5948 13.0278 17.5889 13.0408C17.583 13.0539 17.5725 13.0642 17.5594 13.0699C17.5483 13.0782 17.5348 13.0827 17.521 13.0827C17.5072 13.0827 17.4937 13.0782 17.4826 13.0699L16.2672 12.4302C16.2223 12.405 16.1716 12.3917 16.1201 12.3917C16.0686 12.3917 16.0179 12.405 15.973 12.4302L14.7512 13.0699C14.7411 13.0776 14.7287 13.0819 14.716 13.0819C14.7033 13.0819 14.6909 13.0776 14.6808 13.0699C14.6677 13.0642 14.6572 13.0539 14.6513 13.0408C14.6453 13.0278 14.6445 13.0131 14.6488 12.9995L14.8855 11.6498C14.893 11.5976 14.8882 11.5445 14.8715 11.4945C14.8549 11.4445 14.8268 11.3991 14.7896 11.3619L13.8044 10.4024C13.7983 10.3917 13.795 10.3796 13.795 10.3672C13.795 10.3549 13.7983 10.3427 13.8044 10.332C13.7878 10.333 13.7714 10.3285 13.7575 10.3193C13.7437 10.31 13.7332 10.2966 13.7277 10.2809H13.7021Z" fill="#012D22"/>
<path d="M11.7446 15.5133C11.8399 15.515 11.9343 15.4954 12.0211 15.456C12.1078 15.4165 12.1847 15.3582 12.246 15.2852C12.3073 15.2123 12.3515 15.1265 12.3755 15.0343C12.3994 14.942 12.4024 14.8456 12.3843 14.7521L12.2116 13.7797L12.928 13.0825C13.0183 12.9996 13.0828 12.8926 13.1141 12.7742C13.1453 12.6557 13.1418 12.5308 13.1041 12.4142C13.0663 12.2976 12.9959 12.1944 12.9012 12.1167C12.8065 12.0389 12.6915 11.9901 12.5698 11.9758L11.5911 11.8351L11.1497 10.946C11.0908 10.8436 11.006 10.7587 10.9038 10.6996C10.8016 10.6405 10.6856 10.6094 10.5676 10.6094C10.4495 10.6094 10.3336 10.6405 10.2314 10.6996C10.1292 10.7587 10.0444 10.8436 9.98548 10.946L9.5441 11.8351L8.56538 11.9758C8.4437 11.9901 8.32866 12.0389 8.23394 12.1167C8.13923 12.1944 8.06882 12.2976 8.03109 12.4142C7.99336 12.5308 7.9899 12.6557 8.02111 12.7742C8.05232 12.8926 8.1169 12.9996 8.20716 13.0825L8.91721 13.7797L8.74449 14.7521C8.72233 14.8726 8.73527 14.997 8.78177 15.1104C8.82826 15.2238 8.90636 15.3214 9.00676 15.3917C9.10483 15.4634 9.22127 15.5057 9.34248 15.5136C9.46369 15.5215 9.58465 15.4948 9.69122 15.4365L10.5676 14.9759L11.4439 15.4365C11.5363 15.4864 11.6396 15.5127 11.7446 15.5133ZM10.5676 14.2979C10.516 14.2976 10.4653 14.3108 10.4205 14.3363L9.37778 14.8608L9.60806 13.7222C9.61162 13.6674 9.60184 13.6126 9.57956 13.5625C9.55727 13.5123 9.52315 13.4684 9.48013 13.4343L8.65494 12.6091L9.80636 12.4428C9.85727 12.4366 9.90574 12.4175 9.94717 12.3872C9.9886 12.357 10.0216 12.3167 10.043 12.2701L10.574 11.2274L11.0921 12.2701C11.1136 12.3167 11.1466 12.357 11.188 12.3872C11.2294 12.4175 11.2779 12.4366 11.3288 12.4428L12.4802 12.6283L11.655 13.4343C11.6178 13.4715 11.5897 13.5169 11.5731 13.5669C11.5564 13.6169 11.5516 13.67 11.5591 13.7222L11.7446 14.8736L10.7147 14.3363C10.6699 14.3108 10.6191 14.2976 10.5676 14.2979Z" fill="#012D22"/>
<path d="M23.9688 12.4172C23.9323 12.3015 23.8636 12.1985 23.7707 12.1203C23.6778 12.0422 23.5646 11.9921 23.4443 11.9758L22.4656 11.8351L22.0242 10.946C21.9653 10.8436 21.8805 10.7587 21.7783 10.6996C21.6761 10.6405 21.5601 10.6094 21.4421 10.6094C21.324 10.6094 21.2081 10.6405 21.1059 10.6996C21.0037 10.7587 20.9189 10.8436 20.86 10.946L20.4186 11.8351L19.4399 11.9758C19.3182 11.9901 19.2032 12.0389 19.1085 12.1167C19.0137 12.1944 18.9433 12.2976 18.9056 12.4142C18.8679 12.5308 18.8644 12.6557 18.8956 12.7742C18.9268 12.8926 18.9914 12.9996 19.0817 13.0825L19.7917 13.7797L19.619 14.7521C19.5968 14.8726 19.6098 14.997 19.6563 15.1104C19.7028 15.2238 19.7809 15.3214 19.8813 15.3917C19.9793 15.4634 20.0958 15.5057 20.217 15.5136C20.3382 15.5215 20.4592 15.4948 20.5657 15.4365L21.4421 14.9759L22.3185 15.4365C22.4109 15.4864 22.5141 15.5127 22.6191 15.5133C22.7144 15.515 22.8089 15.4954 22.8956 15.456C22.9824 15.4165 23.0592 15.3582 23.1205 15.2852C23.1818 15.2123 23.2261 15.1265 23.25 15.0343C23.2739 14.942 23.2769 14.8456 23.2588 14.7521L23.0861 13.7797L23.7961 13.0825C23.8852 12.9995 23.9488 12.8929 23.9794 12.775C24.01 12.6572 24.0063 12.533 23.9688 12.4172ZM22.5296 13.4343C22.4923 13.4715 22.4642 13.5169 22.4476 13.5669C22.4309 13.6169 22.4261 13.67 22.4336 13.7222L22.6191 14.8736L21.5892 14.3363C21.5443 14.311 21.4936 14.2978 21.4421 14.2978C21.3906 14.2978 21.3399 14.311 21.295 14.3363L20.2523 14.8608L20.4826 13.7222C20.4861 13.6674 20.4764 13.6126 20.4541 13.5625C20.4318 13.5123 20.3977 13.4684 20.3546 13.4343L19.5295 12.6091L20.6809 12.4428C20.7318 12.4366 20.7803 12.4175 20.8217 12.3872C20.8631 12.357 20.8961 12.3167 20.9176 12.2701L21.4485 11.2274L21.9666 12.2701C21.9881 12.3167 22.0211 12.357 22.0625 12.3872C22.1039 12.4175 22.1524 12.4366 22.2033 12.4428L23.3547 12.6283L22.5296 13.4343Z" fill="#012D22"/>
</g>
<defs>
<clipPath id="clip0_677_3206">
<rect width="16" height="16" fill="white" transform="translate(8 8)"/>
</clipPath>
</defs>
</svg>
