<svg width="32" height="32" viewBox="0 0 32 32" fill="none" xmlns="http://www.w3.org/2000/svg">
<rect width="32" height="32" rx="10" fill="#F9FBFB"/>
<g clip-path="url(#clip0_677_3252)">
<path d="M19.3334 23.1668H10C9.69074 23.1665 9.39421 23.0434 9.1755 22.8247C8.95679 22.606 8.83375 22.3095 8.83337 22.0002V10.0002C8.83375 9.69086 8.95679 9.39433 9.1755 9.17562C9.39421 8.95691 9.69074 8.83387 10 8.8335H19.3334C19.6427 8.83387 19.9392 8.95691 20.1579 9.17562C20.3766 9.39433 20.4997 9.69086 20.5 10.0002V17.3335C20.5 17.4661 20.4474 17.5933 20.3536 17.687C20.2598 17.7808 20.1326 17.8335 20 17.8335C19.8674 17.8335 19.7403 17.7808 19.6465 17.687C19.5527 17.5933 19.5 17.4661 19.5 17.3335V10.0002C19.4995 9.95612 19.4818 9.91403 19.4507 9.88289C19.4195 9.85174 19.3774 9.83402 19.3334 9.8335H10C9.956 9.83402 9.91391 9.85174 9.88276 9.88289C9.85162 9.91403 9.83389 9.95612 9.83337 10.0002V22.0002C9.83389 22.0442 9.85162 22.0863 9.88276 22.1174C9.91391 22.1486 9.956 22.1663 10 22.1668H19.3334C19.4587 22.117 19.5984 22.118 19.723 22.1696C19.8475 22.2212 19.947 22.3194 20.0004 22.4432C20.0263 22.5028 20.0402 22.567 20.041 22.632C20.0419 22.6971 20.0298 22.7616 20.0055 22.8219C19.9812 22.8822 19.9451 22.9371 19.8993 22.9833C19.8535 23.0295 19.799 23.0661 19.739 23.091C19.6099 23.142 19.4722 23.1678 19.3334 23.1668Z" fill="#012D22"/>
<path d="M17.6667 12.5H11.6667C11.5341 12.5 11.407 12.4473 11.3132 12.3536C11.2194 12.2598 11.1667 12.1326 11.1667 12C11.1667 11.8674 11.2194 11.7402 11.3132 11.6464C11.407 11.5527 11.5341 11.5 11.6667 11.5H17.6667C17.7994 11.5 17.9265 11.5527 18.0203 11.6464C18.1141 11.7402 18.1667 11.8674 18.1667 12C18.1667 12.1326 18.1141 12.2598 18.0203 12.3536C17.9265 12.4473 17.7994 12.5 17.6667 12.5Z" fill="#012D22"/>
<path d="M17.6667 15.167H11.6667C11.5341 15.167 11.407 15.1143 11.3132 15.0205C11.2194 14.9268 11.1667 14.7996 11.1667 14.667C11.1667 14.5344 11.2194 14.4072 11.3132 14.3134C11.407 14.2197 11.5341 14.167 11.6667 14.167H17.6667C17.7994 14.167 17.9265 14.2197 18.0203 14.3134C18.1141 14.4072 18.1667 14.5344 18.1667 14.667C18.1667 14.7996 18.1141 14.9268 18.0203 15.0205C17.9265 15.1143 17.7994 15.167 17.6667 15.167Z" fill="#012D22"/>
<path d="M16.0001 17.8335H11.6667C11.5341 17.8335 11.407 17.7808 11.3132 17.687C11.2194 17.5933 11.1667 17.4661 11.1667 17.3335C11.1667 17.2009 11.2194 17.0737 11.3132 16.9799C11.407 16.8862 11.5341 16.8335 11.6667 16.8335H16.0001C16.1327 16.8335 16.2599 16.8862 16.3536 16.9799C16.4474 17.0737 16.5001 17.2009 16.5001 17.3335C16.5001 17.4661 16.4474 17.5933 16.3536 17.687C16.2599 17.7808 16.1327 17.8335 16.0001 17.8335Z" fill="#012D22"/>
<path d="M15.3334 20.5H11.6667C11.5341 20.5 11.407 20.4473 11.3132 20.3536C11.2194 20.2598 11.1667 20.1326 11.1667 20C11.1667 19.8674 11.2194 19.7402 11.3132 19.6464C11.407 19.5527 11.5341 19.5 11.6667 19.5H15.3334C15.466 19.5 15.5932 19.5527 15.687 19.6464C15.7807 19.7402 15.8334 19.8674 15.8334 20C15.8334 20.1326 15.7807 20.2598 15.687 20.3536C15.5932 20.4473 15.466 20.5 15.3334 20.5Z" fill="#012D22"/>
<path d="M20 23.1668C19.3737 23.1668 18.7615 22.9811 18.2407 22.6332C17.72 22.2852 17.3141 21.7906 17.0744 21.212C16.8347 20.6334 16.772 19.9967 16.8942 19.3824C17.0164 18.7681 17.318 18.2039 17.7609 17.761C18.2037 17.3181 18.768 17.0165 19.3823 16.8943C19.9965 16.7722 20.6332 16.8349 21.2119 17.0745C21.7905 17.3142 22.2851 17.7201 22.633 18.2409C22.981 18.7616 23.1667 19.3739 23.1667 20.0002C23.1658 20.8397 22.8318 21.6446 22.2382 22.2383C21.6445 22.8319 20.8396 23.1659 20 23.1668ZM20 17.8335C19.5715 17.8335 19.1526 17.9606 18.7963 18.1986C18.44 18.4367 18.1623 18.7751 17.9983 19.171C17.8343 19.5669 17.7914 20.0026 17.875 20.4229C17.9586 20.8432 18.165 21.2292 18.468 21.5322C18.771 21.8352 19.1571 22.0416 19.5773 22.1252C19.9976 22.2088 20.4333 22.1659 20.8292 22.0019C21.2251 21.8379 21.5635 21.5602 21.8016 21.2039C22.0396 20.8476 22.1667 20.4287 22.1667 20.0002C22.166 19.4257 21.9376 18.875 21.5314 18.4688C21.1252 18.0626 20.5745 17.8342 20 17.8335Z" fill="#012D22"/>
<path d="M19.6667 21.167C19.601 21.167 19.536 21.1541 19.4753 21.129C19.4146 21.1039 19.3595 21.067 19.3132 21.0205L18.6465 20.3538C18.5998 20.3074 18.5627 20.2523 18.5374 20.1916C18.512 20.1309 18.4989 20.0657 18.4988 19.9999C18.4987 19.9341 18.5115 19.8689 18.5367 19.8081C18.5618 19.7473 18.5987 19.692 18.6452 19.6455C18.6917 19.599 18.747 19.5621 18.8078 19.5369C18.8686 19.5118 18.9338 19.4989 18.9996 19.4991C19.0654 19.4992 19.1306 19.5123 19.1913 19.5376C19.252 19.563 19.3072 19.6001 19.3535 19.6468L19.6667 19.9599L20.6465 18.9801C20.7404 18.8869 20.8674 18.8347 20.9996 18.835C21.1319 18.8352 21.2587 18.8879 21.3522 18.9814C21.4458 19.0749 21.4984 19.2017 21.4987 19.334C21.4989 19.4663 21.4467 19.5933 21.3535 19.6871L20.0202 21.0205C19.9738 21.067 19.9187 21.1039 19.8581 21.129C19.7974 21.1541 19.7324 21.167 19.6667 21.167Z" fill="#012D22"/>
</g>
<defs>
<clipPath id="clip0_677_3252">
<rect width="16" height="16" fill="white" transform="translate(8 8)"/>
</clipPath>
</defs>
</svg>
