<svg width="15" height="14" viewBox="0 0 15 14" fill="none" xmlns="http://www.w3.org/2000/svg">
<path d="M14.3524 5.69025L7.71603 0.831262C7.58751 0.738293 7.41524 0.738293 7.28673 0.831262L0.647666 5.69025C0.486338 5.80782 0.450791 6.03751 0.568369 6.19884C0.685947 6.36017 0.915634 6.39572 1.07696 6.27814L7.50001 1.57501L13.9203 6.2754C13.9859 6.32189 14.0598 6.3465 14.1336 6.3465C14.2457 6.3465 14.3551 6.29454 14.4262 6.19884C14.5492 6.03478 14.5137 5.80782 14.3524 5.69025Z" fill="#1BD9BF"/>
<path d="M12.5914 4.60742C12.3918 4.60742 12.2277 4.77148 12.2277 4.97109V12.5098H9.31836V9.35156C9.31836 8.34805 8.50352 7.5332 7.5 7.5332C6.49648 7.5332 5.68164 8.34805 5.68164 9.35156V12.5125H2.77227V4.97109C2.77227 4.77148 2.6082 4.60742 2.40859 4.60742C2.20898 4.60742 2.04492 4.77148 2.04492 4.97109V12.8762C2.04492 13.0758 2.20898 13.2398 2.40859 13.2398H6.04531C6.23672 13.2398 6.39258 13.0922 6.40898 12.9035C6.40898 12.8953 6.41172 12.8844 6.41172 12.8762V9.35156C6.41172 8.75 6.90117 8.26055 7.50273 8.26055C8.1043 8.26055 8.59375 8.75 8.59375 9.35156V12.8762C8.59375 12.8871 8.59375 12.8953 8.59648 12.9035C8.61016 13.0922 8.76875 13.2398 8.96016 13.2398H12.5969C12.7965 13.2398 12.9605 13.0758 12.9605 12.8762V4.97109C12.9551 4.77148 12.7937 4.60742 12.5914 4.60742Z" fill="#1BD9BF"/>
</svg>
