<svg width="13" height="14" viewBox="0 0 13 14" fill="none" xmlns="http://www.w3.org/2000/svg">
<path d="M6.5 0C4.46562 0 2.80859 1.65703 2.80859 3.69141C2.80859 5.72578 4.46562 7.38281 6.5 7.38281C8.53438 7.38281 10.1914 5.72578 10.1914 3.69141C10.1914 1.65703 8.53438 0 6.5 0ZM6.5 6.5625C4.9168 6.5625 3.62891 5.27461 3.62891 3.69141C3.62891 2.1082 4.9168 0.820312 6.5 0.820312C8.0832 0.820312 9.37109 2.1082 9.37109 3.69141C9.37109 5.27461 8.0832 6.5625 6.5 6.5625Z" fill="#B8C3C0"/>
<path d="M11.0938 9.79453C10.082 8.76914 8.74219 8.20312 7.32031 8.20312H5.67969C4.25781 8.20312 2.91797 8.76914 1.90625 9.79453C0.902734 10.8145 0.347656 12.1625 0.347656 13.5898C0.347656 13.8168 0.530859 14 0.757812 14H12.2422C12.4691 14 12.6523 13.8168 12.6523 13.5898C12.6523 12.1625 12.0973 10.8145 11.0938 9.79453ZM1.18711 13.1797C1.39219 10.8527 3.32812 9.02344 5.67969 9.02344H7.32031C9.67188 9.02344 11.6078 10.8527 11.8129 13.1797H1.18711Z" fill="#B8C3C0"/>
</svg>
