<svg width="16" height="15" viewBox="0 0 16 15" fill="none" xmlns="http://www.w3.org/2000/svg">
<path d="M5.90748 3.83337H3.16683C2.23341 3.83337 1.76635 3.83337 1.40983 4.01503C1.09623 4.17482 0.841445 4.4296 0.681656 4.7432C0.5 5.09972 0.5 5.56678 0.5 6.5002V11.1669C0.5 12.1003 0.5 12.5663 0.681656 12.9229C0.841445 13.2365 1.09623 13.4921 1.40983 13.6519C1.766 13.8334 2.23249 13.8334 3.16409 13.8334H12.8359C13.7675 13.8334 14.2333 13.8334 14.5895 13.6519C14.9031 13.4921 15.1587 13.2365 15.3185 12.9229C15.5 12.5667 15.5 12.1009 15.5 11.1693V6.49747C15.5 5.56587 15.5 5.09938 15.3185 4.7432C15.1587 4.4296 14.9031 4.17482 14.5895 4.01503C14.233 3.83337 13.7669 3.83337 12.8335 3.83337H10.0924M5.90748 3.83337H5.95898M5.90748 3.83337C5.91792 3.83338 5.9289 3.83338 5.94047 3.83338L5.95898 3.83337M5.90748 3.83337C5.81905 3.83334 5.76949 3.83288 5.73031 3.82849C5.24065 3.77367 4.90482 3.3076 5.00765 2.82574C5.01722 2.7809 5.03613 2.72416 5.07359 2.61181L5.0752 2.60705C5.11797 2.47873 5.13936 2.41457 5.16298 2.35795C5.40489 1.77828 5.95268 1.38406 6.5791 1.33788C6.64029 1.33337 6.70751 1.33337 6.84277 1.33337H9.15715C9.29242 1.33337 9.36019 1.33337 9.42138 1.33788C10.0478 1.38406 10.595 1.77828 10.8369 2.35795C10.8605 2.41457 10.882 2.47866 10.9248 2.60697C10.9633 2.72253 10.9826 2.78034 10.9923 2.82582C11.0951 3.30768 10.7598 3.77367 10.2702 3.82849C10.231 3.83288 10.1809 3.83334 10.0924 3.83337M5.95898 3.83337H10.0408M10.0408 3.83337H10.0924M10.0408 3.83337L10.0593 3.83338C10.0709 3.83338 10.0819 3.83338 10.0924 3.83337M8 11.3334C6.61929 11.3334 5.5 10.2141 5.5 8.83337C5.5 7.45266 6.61929 6.33337 8 6.33337C9.38071 6.33337 10.5 7.45266 10.5 8.83337C10.5 10.2141 9.38071 11.3334 8 11.3334Z" stroke="#012D22" stroke-linecap="round" stroke-linejoin="round"/>
</svg>
