<svg width="24" height="24" viewBox="0 0 24 24" fill="none" xmlns="http://www.w3.org/2000/svg">
<g clip-path="url(#clip0_743_3736)">
<path d="M19.9999 24C20.4242 24 20.8312 23.8314 21.1313 23.5314C21.4313 23.2313 21.5999 22.8243 21.5999 22.4V6.4968C21.5988 6.0727 21.4303 5.66618 21.1311 5.3656L16.2343 0.4688C15.9337 0.169609 15.5272 0.00113768 15.1031 0L3.9999 0C3.57556 0 3.16859 0.168571 2.86853 0.468629C2.56847 0.768687 2.3999 1.17565 2.3999 1.6V22.4C2.3999 22.8243 2.56847 23.2313 2.86853 23.5314C3.16859 23.8314 3.57556 24 3.9999 24H19.9999ZM20.2343 5.6H16.7999C16.5877 5.6 16.3842 5.51571 16.2342 5.36569C16.0842 5.21566 15.9999 5.01217 15.9999 4.8V1.3656L20.2343 5.6ZM3.1999 22.4V1.6C3.1999 1.38783 3.28419 1.18434 3.43422 1.03431C3.58425 0.884285 3.78773 0.8 3.9999 0.8H15.1031C15.1355 0.801217 15.1679 0.804423 15.1999 0.8096V4.8C15.1999 5.22435 15.3685 5.63131 15.6685 5.93137C15.9686 6.23143 16.3756 6.4 16.7999 6.4H20.7903C20.7955 6.43204 20.7987 6.46437 20.7999 6.4968V22.4C20.7999 22.6122 20.7156 22.8157 20.5656 22.9657C20.4156 23.1157 20.2121 23.2 19.9999 23.2H3.9999C3.78773 23.2 3.58425 23.1157 3.43422 22.9657C3.28419 22.8157 3.1999 22.6122 3.1999 22.4Z" fill="black"/>
<path d="M6.0001 10.4H18.0001C18.1062 10.4 18.2079 10.3578 18.2829 10.2828C18.358 10.2078 18.4001 10.1061 18.4001 9.99998C18.4001 9.89389 18.358 9.79215 18.2829 9.71713C18.2079 9.64212 18.1062 9.59998 18.0001 9.59998H6.0001C5.89401 9.59998 5.79227 9.64212 5.71726 9.71713C5.64224 9.79215 5.6001 9.89389 5.6001 9.99998C5.6001 10.1061 5.64224 10.2078 5.71726 10.2828C5.79227 10.3578 5.89401 10.4 6.0001 10.4Z" fill="black"/>
<path d="M6.0001 13.6H18.0001C18.1062 13.6 18.2079 13.5579 18.2829 13.4829C18.358 13.4079 18.4001 13.3061 18.4001 13.2C18.4001 13.094 18.358 12.9922 18.2829 12.9172C18.2079 12.8422 18.1062 12.8 18.0001 12.8H6.0001C5.89401 12.8 5.79227 12.8422 5.71726 12.9172C5.64224 12.9922 5.6001 13.094 5.6001 13.2C5.6001 13.3061 5.64224 13.4079 5.71726 13.4829C5.79227 13.5579 5.89401 13.6 6.0001 13.6Z" fill="black"/>
<path d="M6.0001 16.8H18.0001C18.1062 16.8 18.2079 16.7579 18.2829 16.6828C18.358 16.6078 18.4001 16.5061 18.4001 16.4C18.4001 16.2939 18.358 16.1922 18.2829 16.1172C18.2079 16.0421 18.1062 16 18.0001 16H6.0001C5.89401 16 5.79227 16.0421 5.71726 16.1172C5.64224 16.1922 5.6001 16.2939 5.6001 16.4C5.6001 16.5061 5.64224 16.6078 5.71726 16.6828C5.79227 16.7579 5.89401 16.8 6.0001 16.8Z" fill="black"/>
<path d="M6.0001 20H14.0001C14.1062 20 14.2079 19.9578 14.2829 19.8828C14.358 19.8078 14.4001 19.706 14.4001 19.6C14.4001 19.4939 14.358 19.3921 14.2829 19.3171C14.2079 19.2421 14.1062 19.2 14.0001 19.2H6.0001C5.89401 19.2 5.79227 19.2421 5.71726 19.3171C5.64224 19.3921 5.6001 19.4939 5.6001 19.6C5.6001 19.706 5.64224 19.8078 5.71726 19.8828C5.79227 19.9578 5.89401 20 6.0001 20Z" fill="black"/>
</g>
<defs>
<clipPath id="clip0_743_3736">
<rect width="24" height="24" fill="white"/>
</clipPath>
</defs>
</svg>
