<svg width="193" height="139" viewBox="0 0 193 139" fill="none" xmlns="http://www.w3.org/2000/svg">
<g clip-path="url(#clip0_743_1945)">
<path d="M58.2498 135.91C58.2534 136.426 58.1188 136.934 57.8598 137.38C57.6241 137.825 57.2802 138.203 56.8598 138.48C56.4285 138.751 55.929 138.893 55.4198 138.89H50.0898V127.39H55.1698C55.6711 127.376 56.1632 127.527 56.5698 127.82C56.966 128.099 57.2803 128.479 57.4798 128.92C57.6893 129.357 57.7986 129.835 57.7999 130.32C57.8035 130.885 57.6475 131.44 57.3498 131.92C57.0693 132.395 56.6458 132.77 56.1398 132.99C56.7735 133.172 57.3268 133.563 57.7098 134.1C58.0731 134.633 58.2618 135.265 58.2498 135.91ZM50.3798 127.71V132.93H55.0499C55.4951 132.942 55.9315 132.805 56.2898 132.54C56.6481 132.279 56.9394 131.936 57.1398 131.54C57.3352 131.159 57.438 130.738 57.4398 130.31C57.4483 129.863 57.3488 129.421 57.1498 129.02C56.9713 128.622 56.6922 128.277 56.3398 128.02C55.9887 127.775 55.5681 127.649 55.1398 127.66L50.3798 127.71ZM57.9298 135.91C57.9319 135.457 57.822 135.01 57.6098 134.61C57.4069 134.213 57.1121 133.87 56.7498 133.61C56.3815 133.359 55.9455 133.227 55.4998 133.23H50.3798V138.55H55.3798C55.8365 138.555 56.2835 138.419 56.6599 138.16C57.0427 137.906 57.3583 137.563 57.5798 137.16C57.8037 136.781 57.9243 136.35 57.9298 135.91Z" fill="white"/>
<path d="M74.7004 138.57V138.89H67.1504V127.39H74.5504V127.71H67.4704V132.85H73.6804V133.17H67.4704V138.57H74.7004Z" fill="white"/>
<path d="M87.3398 127.39H87.6298L92.6298 138.89H92.2698L90.4898 134.77H84.4898L82.6898 138.89H82.3398L87.3398 127.39ZM90.3398 134.45L87.4698 127.86L84.5998 134.45H90.3398Z" fill="white"/>
<path d="M105.55 138.97C104.761 138.999 103.978 138.83 103.27 138.48C102.68 138.165 102.18 137.704 101.82 137.14C101.46 136.562 101.203 135.926 101.06 135.26C100.908 134.563 100.831 133.853 100.83 133.14V127.39H101.16V133.14C101.16 133.812 101.231 134.482 101.37 135.14C101.497 135.77 101.734 136.372 102.07 136.92C102.401 137.443 102.863 137.87 103.41 138.16C104.08 138.473 104.811 138.635 105.55 138.635C106.29 138.635 107.02 138.473 107.69 138.16C108.241 137.862 108.703 137.424 109.03 136.89C109.367 136.344 109.601 135.74 109.72 135.11C109.858 134.452 109.925 133.782 109.92 133.11V127.36H110.25V133.11C110.252 133.847 110.171 134.581 110.01 135.3C109.856 135.964 109.589 136.597 109.22 137.17C108.856 137.714 108.36 138.157 107.78 138.46C107.09 138.811 106.324 138.987 105.55 138.97Z" fill="white"/>
<path d="M127.57 127.71H123.16V138.89H122.84V127.71H118.43V127.39H127.57V127.71Z" fill="white"/>
<path d="M135.09 127.39L139.53 134.06L143.98 127.39H144.36L139.69 134.39V138.85H139.36V134.36L134.71 127.36L135.09 127.39Z" fill="white"/>
<path d="M15.68 106.1C15.68 107.86 15.76 109.97 15.91 112.45C10.5767 112.383 5.27333 112.383 0 112.45V112.18C0.833994 112.057 1.63388 111.765 2.35 111.32C2.54464 111.103 2.69151 110.848 2.78109 110.57C2.87067 110.293 2.90096 110 2.87 109.71V93.46C2.89971 93.1703 2.86883 92.8775 2.77931 92.6003C2.68979 92.3232 2.54359 92.0676 2.35 91.85C1.63388 91.4053 0.833994 91.1126 0 90.99V90.77C5.27333 90.8367 10.5433 90.8367 15.81 90.77C15.65 92.94 15.58 94.77 15.58 96.38H15.31C14.9508 94.9681 14.1043 93.7285 12.92 92.88C11.302 92.1666 9.53361 91.861 7.76999 91.99H6.25V100.4H8.25C9.26123 100.479 10.2727 100.249 11.15 99.74C11.9289 99.0746 12.5245 98.2208 12.88 97.26H13.15C12.97 99.7468 12.97 102.243 13.15 104.73H12.88C12.5486 103.756 11.9573 102.892 11.17 102.23C10.2803 101.735 9.26499 101.513 8.25 101.59H6.25V111.29H7.84C10.2133 111.29 11.9033 110.957 12.91 110.29C14.1673 109.232 15.0451 107.792 15.41 106.19L15.68 106.1Z" fill="white"/>
<path d="M39.33 112.77L30.68 95.1H30.45L29.9 108.68C29.8453 109.103 29.8841 109.532 30.0137 109.938C30.1433 110.344 30.3605 110.717 30.65 111.03C31.4993 111.676 32.5022 112.09 33.56 112.23V112.5C30.72 112.433 27.88 112.433 25.04 112.5V112.23C25.9739 112.068 26.8454 111.653 27.56 111.03C28.1025 110.368 28.3931 109.536 28.38 108.68L29.13 94.83C29.1991 94.386 29.179 93.9327 29.0708 93.4966C28.9627 93.0605 28.7686 92.6503 28.5 92.29C27.7484 91.6198 26.8165 91.1852 25.82 91.04V90.77C28 90.8367 30.2067 90.8367 32.44 90.77L40.38 106.99H40.62L47.44 90.77C49.52 90.8367 51.5934 90.8367 53.66 90.77V91.04C52.8681 91.1624 52.1093 91.4448 51.43 91.87C51.2016 92.0724 51.0265 92.3278 50.9202 92.6138C50.8138 92.8998 50.7794 93.2076 50.82 93.51C51.0934 99.8633 51.3867 105.293 51.7 109.8C51.694 110.096 51.7495 110.391 51.8631 110.664C51.9767 110.938 52.1459 111.185 52.36 111.39C53.0472 111.816 53.8119 112.101 54.61 112.23V112.5C51.61 112.43 48.51 112.43 45.45 112.5V112.23C46.288 112.123 47.0912 111.829 47.8 111.37C48.0027 111.158 48.1547 110.904 48.2448 110.625C48.3349 110.346 48.3606 110.05 48.32 109.76C47.96 103.88 47.7134 98.8334 47.58 94.62H47.34L39.64 112.77H39.33Z" fill="white"/>
<path d="M79.0101 106.1C79.0101 107.86 79.0901 109.97 79.2401 112.45C73.9067 112.383 68.6034 112.383 63.3301 112.45V112.18C64.1641 112.057 64.964 111.765 65.6801 111.32C65.8791 111.106 66.0289 110.851 66.1187 110.573C66.2085 110.295 66.2363 110 66.2001 109.71V93.46C66.2323 93.1701 66.2026 92.8767 66.113 92.5992C66.0233 92.3216 65.8758 92.0663 65.6801 91.85C64.964 91.4053 64.1641 91.1126 63.3301 90.99V90.77C68.5967 90.8367 73.8667 90.8367 79.1401 90.77C78.9901 92.94 78.9101 94.77 78.9101 96.38H78.6401C78.2809 94.9681 77.4344 93.7285 76.2501 92.88C74.632 92.1666 72.8637 91.861 71.1001 91.99H69.5801V100.4H71.5801C72.5913 100.479 73.6027 100.249 74.4801 99.74C75.259 99.0746 75.8546 98.2208 76.2101 97.26H76.4801C76.3001 99.7468 76.3001 102.243 76.4801 104.73H76.2101C75.8787 103.756 75.2874 102.892 74.5001 102.23C73.6104 101.735 72.5951 101.513 71.5801 101.59H69.5801V111.29H71.2001C73.5667 111.29 75.2567 110.957 76.2701 110.29C77.5274 109.232 78.4051 107.792 78.7701 106.19L79.0101 106.1Z" fill="white"/>
<path d="M118.75 118.64C119.938 118.606 121.118 118.445 122.27 118.16V118.43C120.339 119.635 118.117 120.292 115.84 120.33C114.144 120.33 112.469 119.947 110.94 119.21C109.27 118.379 107.76 117.259 106.48 115.9C105.049 114.417 103.738 112.822 102.56 111.13C101.374 109.417 100.114 107.367 98.7805 104.98C98.4439 104.342 98.0699 103.724 97.6605 103.13H97.4605C96.6981 103.133 95.9418 102.994 95.2305 102.72V109.72C95.1994 110.013 95.2335 110.31 95.3304 110.588C95.4272 110.866 95.5843 111.12 95.7905 111.33C96.5749 111.783 97.4418 112.076 98.3405 112.19V112.46C95.2138 112.394 92.0938 112.394 88.9805 112.46V112.19C89.8145 112.068 90.6144 111.775 91.3305 111.33C91.5295 111.116 91.6793 110.861 91.7691 110.583C91.8589 110.305 91.8867 110.01 91.8505 109.72V93.4602C91.8827 93.1704 91.853 92.877 91.7634 92.5994C91.6737 92.3219 91.5262 92.0665 91.3305 91.8502C90.6144 91.4055 89.8145 91.1128 88.9805 90.9902V90.7702C91.3405 90.8369 93.8871 90.8369 96.6205 90.7702C98.8853 90.5564 101.158 91.0902 103.09 92.2902C103.811 92.7642 104.4 93.4122 104.804 94.1743C105.208 94.9364 105.413 95.7879 105.4 96.6503C105.398 97.941 104.957 99.1926 104.15 100.2C103.288 101.301 102.129 102.134 100.81 102.6C101.17 103.14 101.43 103.6 101.58 103.82C104.847 109.36 107.794 113.224 110.42 115.41C112.721 117.449 115.677 118.595 118.75 118.64ZM96.2805 91.9403C95.9277 91.9308 95.5751 91.9643 95.2305 92.0402V101.5C95.8664 101.758 96.5443 101.897 97.2305 101.91C97.8308 101.915 98.4254 101.792 98.9751 101.551C99.5249 101.31 100.017 100.955 100.42 100.51C100.886 100.027 101.251 99.457 101.494 98.8322C101.738 98.2075 101.856 97.5407 101.84 96.8703C101.886 96.1943 101.784 95.5165 101.54 94.8843C101.297 94.2521 100.918 93.6808 100.43 93.2102C99.2722 92.2863 97.8082 91.8328 96.3305 91.9403H96.2805Z" fill="white"/>
<path d="M115.57 112.45V112.18C116.366 111.956 117.096 111.544 117.7 110.98C118.357 110.261 118.864 109.417 119.19 108.5L126.73 90.3799H127.03L135.84 109.65C136.1 110.32 136.495 110.929 137 111.44C137.542 111.837 138.175 112.092 138.84 112.18V112.45C135.78 112.383 132.707 112.383 129.62 112.45V112.18L129.89 112.11C130.45 111.983 130.86 111.873 131.12 111.78C131.389 111.685 131.637 111.539 131.85 111.35C131.955 111.268 132.04 111.163 132.099 111.044C132.158 110.924 132.189 110.793 132.19 110.66C132.181 110.33 132.099 110.005 131.95 109.71L130.3 105.9H121.84L120.69 108.63C120.488 109.091 120.376 109.587 120.36 110.09C120.36 111.17 121.28 111.87 123.13 112.18V112.45C120.58 112.38 118.07 112.38 115.57 112.45ZM122.3 104.68H129.77L126.08 96.0599H125.84L122.3 104.68Z" fill="white"/>
<path d="M147.04 112.45V112.18C147.874 112.057 148.674 111.765 149.39 111.32C149.585 111.103 149.732 110.848 149.821 110.57C149.911 110.293 149.941 110 149.91 109.71V93.46C149.94 93.1703 149.909 92.8775 149.819 92.6003C149.73 92.3232 149.584 92.0676 149.39 91.85C148.674 91.4053 147.874 91.1126 147.04 90.99V90.77C150.28 90.84 153.54 90.84 156.8 90.77V91.04C155.79 91.147 154.808 91.4349 153.9 91.89C153.675 92.0904 153.501 92.3425 153.395 92.6247C153.289 92.9069 153.253 93.2108 153.29 93.51V111.29H154.74C156.332 111.412 157.919 111.001 159.25 110.12C160.475 108.929 161.326 107.407 161.7 105.74H161.97C161.97 107.52 162.02 109.74 162.18 112.5C157.133 112.4 152.087 112.383 147.04 112.45Z" fill="white"/>
<path d="M179.41 90.7699C183.69 90.6566 187.024 91.4899 189.41 93.2699C190.592 94.1557 191.538 95.3187 192.164 96.6563C192.79 97.9939 193.077 99.4651 193 100.94C193.082 102.517 192.831 104.094 192.262 105.567C191.693 107.04 190.82 108.377 189.7 109.49C187.514 111.59 184.534 112.59 180.76 112.49C177.56 112.42 174.38 112.42 171.2 112.49V112.22C172.021 112.096 172.808 111.803 173.51 111.36C173.711 111.147 173.863 110.892 173.954 110.614C174.046 110.336 174.075 110.041 174.04 109.75V93.4599C174.075 93.1692 174.048 92.8743 173.96 92.5949C173.872 92.3156 173.725 92.0582 173.53 91.8399C172.82 91.3993 172.027 91.1099 171.2 90.9899V90.7699C173.72 90.8033 176.457 90.8033 179.41 90.7699ZM181.07 111.29C182.2 111.354 183.329 111.156 184.37 110.712C185.41 110.268 186.335 109.59 187.07 108.73C188.6 106.728 189.362 104.245 189.22 101.73C189.22 98.5299 188.374 96.11 186.68 94.47C184.987 92.83 182.577 92.0066 179.45 92C178.782 91.9893 178.114 92.0227 177.45 92.0999V111.16C178.655 111.247 179.863 111.274 181.07 111.24V111.29Z" fill="white"/>
<mask id="mask0_743_1945" style="mask-type:luminance" maskUnits="userSpaceOnUse" x="76" y="20" width="48" height="55">
<path d="M103.93 28.77C103.946 28.8983 103.934 29.0286 103.895 29.1518C103.855 29.275 103.79 29.3882 103.702 29.4834C103.614 29.5785 103.507 29.6535 103.388 29.703C103.268 29.7525 103.139 29.7754 103.01 29.77H83.0101V30.01C84.3601 30.49 85.5101 30.92 85.5101 32.51V62.1C85.5101 63.73 84.3601 64.1 83.0101 64.65V64.88H103.01C103.64 64.88 103.93 65.27 103.93 65.88H104.17L106.47 56.81H106.23C103.16 62.52 100.08 63.87 97.0601 63.87H89.0601V30.77H97.0601C100.06 30.77 103.16 32.17 106.23 37.88H106.47L104.17 28.8L103.93 28.77ZM76.3301 20.25V58.77L78.2401 56.77V21.77H98.1001C109.74 21.77 115.29 27.84 115.29 35.03C115.294 37.3478 114.63 39.6177 113.378 41.5684C112.126 43.519 110.339 45.0679 108.23 46.03C105.16 47.41 100.73 47.54 97.1201 47.34V48.39C102.62 48.83 110.17 49.77 112.46 51.71C115.59 53.71 117.29 57.03 117.29 61.23C117.29 68.78 111.88 72.86 103.81 72.86H84.6701L83.1101 74.42H103.84C115.4 74.42 123.18 69.67 123.18 61.42C123.18 54.42 117.62 49.71 110.28 48.9C116.28 47.04 121.18 42.22 121.18 35.04C121.18 26.3 113.99 20.29 101.18 20.29L76.3301 20.25Z" fill="white"/>
</mask>
<g mask="url(#mask0_743_1945)">
<path d="M111.449 0.00421906L52.8711 33.8242L88.0311 94.7231L146.609 60.9031L111.449 0.00421906Z" fill="url(#paint0_linear_743_1945)"/>
</g>
</g>
<defs>
<linearGradient id="paint0_linear_743_1945" x1="112.033" y1="74.4106" x2="79.6684" y2="18.3528" gradientUnits="userSpaceOnUse">
<stop stop-color="#1BB4BD"/>
<stop offset="0.29" stop-color="#69DDCF"/>
<stop offset="0.36" stop-color="#72EAE1"/>
<stop offset="0.47" stop-color="#7CF9F7"/>
<stop offset="0.54" stop-color="#80FFFF"/>
<stop offset="0.76" stop-color="#1BD7BD"/>
<stop offset="1" stop-color="#1BB4BD"/>
</linearGradient>
<clipPath id="clip0_743_1945">
<rect width="193" height="138.97" fill="white"/>
</clipPath>
</defs>
</svg>
