<svg width="60" height="60" viewBox="0 0 60 60" fill="none" xmlns="http://www.w3.org/2000/svg">
<g clip-path="url(#clip0_531_39)">
<path d="M44.2871 46.8538C44.334 45.4006 43.1621 44.1936 41.709 44.1936C41.7793 44.1936 41.8496 44.1936 41.9199 44.1936C43.3262 44.1936 44.4629 43.0569 44.4629 41.6506C44.4629 40.2444 43.3262 39.1194 41.9199 39.1194H31.3379C31.0449 39.1194 30.834 38.8264 30.9277 38.5452L31.8535 35.7092C32.6387 33.2952 32.498 31.6545 32.498 28.842C32.498 27.178 31.1504 25.842 29.498 25.842C27.9863 25.842 26.7207 26.9553 26.5215 28.4553C26.2988 30.1077 26.1582 33.0491 23.416 35.6858L21.4824 37.5491C20.4043 38.5803 18.9746 39.1663 17.4746 39.1663H14.9434V55.8538C15.6348 55.8538 17.0176 55.8538 17.0176 55.8538C20.6973 55.8538 20.3691 59.4983 24.9512 59.4983H40.5488C41.9551 59.4983 43.0918 58.3616 43.0918 56.9553C43.0918 55.5491 41.9551 54.4123 40.5488 54.4123H40.9941C42.377 54.4123 43.5488 53.3342 43.5957 51.9631C43.6426 50.5217 42.4941 49.3381 41.0527 49.3381H41.6738C43.0566 49.303 44.2402 48.2248 44.2871 46.8538Z" fill="#FFD3B3"/>
<path d="M14.2275 37.6475H4.60644C3.87988 37.6475 3.29395 38.2334 3.29395 38.96V56.3389C3.29395 57.0654 3.87988 57.6514 4.60644 57.6514H14.2275C14.9541 57.6514 15.54 57.0654 15.54 56.3389V38.96C15.54 38.2334 14.9541 37.6475 14.2275 37.6475Z" fill="#1BD9BF"/>
<path d="M17.1524 14.2896C17.5157 13.9497 17.3165 13.3521 16.8126 13.2817L12.9805 12.731C12.7813 12.7075 12.6172 12.5786 12.5235 12.4028L10.8126 9.00439C10.5899 8.55908 9.94537 8.55908 9.72271 9.00439L8.01178 12.4028C7.91803 12.5786 7.75396 12.6958 7.55474 12.731L3.72271 13.2817C3.23053 13.3521 3.03131 13.9497 3.38287 14.2896L6.16021 16.938C6.30084 17.0786 6.37115 17.2661 6.33599 17.4653L5.67974 21.2036C5.59771 21.6841 6.11334 22.0591 6.55865 21.8247L9.98053 20.0552C10.1563 19.9614 10.3672 19.9614 10.543 20.0552L13.9649 21.8247C14.4102 22.0474 14.9258 21.6841 14.8438 21.2036L14.1876 17.4653C14.1524 17.2778 14.2227 17.0786 14.3633 16.938L17.1524 14.2896Z" fill="#FFB949"/>
<path d="M6.2773 22.4341C6.04293 22.4341 5.79684 22.3638 5.59762 22.2114C5.24605 21.9536 5.08199 21.5317 5.1523 21.1216L5.80855 17.3833C5.80855 17.3716 5.80855 17.3481 5.79684 17.3364L3.01949 14.688C2.70309 14.3833 2.59762 13.9497 2.72652 13.5395C2.85543 13.1294 3.21871 12.8247 3.6523 12.7661L7.48434 12.2153C7.50777 12.2153 7.53121 12.2036 7.54293 12.1802L9.25387 8.78174C9.45308 8.39502 9.8398 8.16064 10.2734 8.16064C10.707 8.16064 11.0937 8.39502 11.2929 8.78174L13.0039 12.1802C13.0156 12.2036 13.039 12.2153 13.0625 12.2153L16.8945 12.7661C17.3281 12.8247 17.6796 13.1294 17.8203 13.5395C17.9492 13.9497 17.8437 14.395 17.5273 14.688L14.75 17.3364C14.7382 17.3481 14.7265 17.3716 14.7382 17.3833L15.3945 21.1216C15.4648 21.5435 15.3007 21.9653 14.9492 22.2114C14.5976 22.4692 14.1289 22.5044 13.7421 22.3052L10.3086 20.5356C10.2851 20.5239 10.2617 20.5239 10.2382 20.5356L6.81637 22.3052C6.64058 22.3872 6.4648 22.4341 6.2773 22.4341ZM10.2734 9.21533C10.2265 9.21533 10.2148 9.23877 10.2031 9.25049L8.49215 12.6489C8.32808 12.977 7.99996 13.2114 7.63668 13.2583L3.80465 13.8091C3.79293 13.8091 3.75777 13.8208 3.74605 13.856C3.73434 13.8794 3.74605 13.8911 3.75777 13.9028L6.53512 16.5513C6.80465 16.8091 6.93355 17.1841 6.86324 17.5591L6.20699 21.2974C6.20699 21.3091 6.20699 21.3325 6.23043 21.3442C6.25387 21.3677 6.28902 21.3677 6.31246 21.356L9.73433 19.5864C10.0625 19.4224 10.4609 19.4224 10.789 19.5864L14.2109 21.356C14.2461 21.3677 14.2695 21.3677 14.2929 21.3442C14.3164 21.3208 14.3164 21.3091 14.3164 21.2974L13.6601 17.5591C13.6015 17.1958 13.7187 16.8208 13.9882 16.5513L16.7656 13.9028C16.7773 13.8911 16.789 13.8794 16.7773 13.856C16.7656 13.8208 16.7304 13.8091 16.7187 13.8091L12.8867 13.2583C12.5117 13.2114 12.1953 12.977 12.0312 12.6489L10.3203 9.25049C10.332 9.25049 10.3203 9.21533 10.2734 9.21533Z" fill="#000E0A"/>
<path d="M56.6016 14.2896C56.9649 13.9497 56.7657 13.3521 56.2618 13.2817L52.4297 12.731C52.2305 12.7075 52.0665 12.5786 51.9727 12.4028L50.2618 9.00439C50.0391 8.55908 49.3946 8.55908 49.1719 9.00439L47.461 12.4028C47.3672 12.5786 47.2032 12.6958 47.004 12.731L43.1719 13.2817C42.6797 13.3521 42.4805 13.9497 42.8321 14.2896L45.6094 16.938C45.7501 17.0786 45.8204 17.2661 45.7852 17.4653L45.129 21.2036C45.0469 21.6841 45.5626 22.0591 46.0079 21.8247L49.4297 20.0552C49.6055 19.9614 49.8165 19.9614 49.9922 20.0552L53.4141 21.8247C53.8594 22.0474 54.3751 21.6841 54.293 21.2036L53.6368 17.4653C53.6016 17.2778 53.6719 17.0786 53.8126 16.938L56.6016 14.2896Z" fill="#FFB949"/>
<path d="M45.7382 22.4341C45.5039 22.4341 45.2578 22.3638 45.0586 22.2114C44.707 21.9536 44.5429 21.5317 44.6132 21.1216L45.2695 17.3833C45.2695 17.3716 45.2695 17.3481 45.2578 17.3364L42.4804 14.688C42.164 14.3833 42.0586 13.9497 42.1875 13.5395C42.3164 13.1294 42.6796 12.8247 43.1132 12.7661L46.9453 12.2153C46.9687 12.2153 46.9921 12.2036 47.0039 12.1802L48.7148 8.78174C48.914 8.39502 49.3007 8.16064 49.7343 8.16064C50.1679 8.16064 50.5546 8.39502 50.7539 8.78174L52.4648 12.1802C52.4765 12.2036 52.5 12.2153 52.5234 12.2153L56.3554 12.7661C56.789 12.8247 57.1406 13.1294 57.2812 13.5395C57.4101 13.9497 57.3046 14.395 56.9882 14.688L54.2109 17.3364C54.1992 17.3481 54.1875 17.3716 54.1992 17.3833L54.8554 21.1216C54.9257 21.5435 54.7617 21.9653 54.4101 22.2114C54.0586 22.4692 53.5898 22.5044 53.2031 22.3052L49.7695 20.5356C49.7461 20.5239 49.7226 20.5239 49.6992 20.5356L46.2773 22.3052C46.1015 22.3872 45.914 22.4341 45.7382 22.4341ZM49.7226 19.4575C49.8984 19.4575 50.0859 19.5044 50.25 19.5864L53.6718 21.356C53.707 21.3677 53.7304 21.3677 53.7539 21.3442C53.7773 21.3208 53.7773 21.3091 53.7773 21.2974L53.1211 17.5591C53.0507 17.1958 53.1796 16.8208 53.4492 16.5513L56.2265 13.9028C56.2382 13.8911 56.25 13.8794 56.2382 13.856C56.2265 13.8208 56.1914 13.8091 56.1796 13.8091L52.3476 13.2583C51.9726 13.2114 51.6562 12.977 51.4921 12.6489L49.7812 9.25049C49.7812 9.23877 49.7578 9.21533 49.7109 9.21533C49.664 9.21533 49.6523 9.23877 49.6406 9.25049L47.9296 12.6489C47.7656 12.977 47.4375 13.2114 47.0742 13.2583L43.2421 13.8091C43.2304 13.8091 43.1953 13.8208 43.1836 13.856C43.1718 13.8794 43.1836 13.8911 43.1953 13.9028L45.9726 16.5513C46.2421 16.8091 46.3711 17.1841 46.3007 17.5591L45.6445 21.2974C45.6445 21.3091 45.6445 21.3325 45.6679 21.3442C45.6914 21.3677 45.7265 21.3677 45.75 21.356L49.1718 19.5864C49.3711 19.5044 49.5468 19.4575 49.7226 19.4575Z" fill="#000E0A"/>
<path d="M41.1217 9.60791C41.7076 9.05713 41.3795 8.08447 40.5826 7.979L34.3834 7.1001C34.067 7.05322 33.7857 6.854 33.6451 6.57275L30.8795 1.07666C30.5162 0.361816 29.4849 0.361816 29.1217 1.07666L26.356 6.57275C26.2154 6.854 25.9342 7.05322 25.6177 7.1001L19.4185 7.979C18.6217 8.09619 18.2935 9.05713 18.8795 9.60791L23.356 13.8853C23.5904 14.1079 23.6959 14.4243 23.6373 14.729L22.5826 20.7759C22.442 21.561 23.2857 22.1587 24.0006 21.7837L29.5435 18.936C29.8248 18.7837 30.1646 18.7837 30.4576 18.936L36.0006 21.7837C36.7154 22.1587 37.5592 21.561 37.4185 20.7759L36.3638 14.729C36.3052 14.4126 36.4107 14.0962 36.6451 13.8853L41.1217 9.60791Z" fill="#FFB949"/>
<path d="M36.4461 22.4282C36.2117 22.4282 35.9656 22.3696 35.7429 22.2524L30.2 19.4048C30.0711 19.3345 29.907 19.3345 29.7781 19.4048L24.2351 22.2524C23.7195 22.522 23.0984 22.4751 22.6297 22.1235C22.1726 21.7837 21.95 21.2329 22.0437 20.6704L23.0984 14.6235C23.1218 14.4829 23.075 14.354 22.9695 14.2485L18.4929 9.97119C18.0828 9.57276 17.9304 8.98682 18.1062 8.44776C18.282 7.89697 18.7508 7.49853 19.3367 7.4165L25.5359 6.5376C25.6765 6.51416 25.8054 6.43213 25.8758 6.30322L28.6414 0.80713C28.8992 0.291505 29.4148 -0.0249023 29.989 -0.0249023C30.5633 -0.0249023 31.0906 0.291505 31.3367 0.80713L34.1023 6.30322C34.1609 6.43213 34.2898 6.51416 34.4422 6.5376L40.6414 7.4165C41.2156 7.49853 41.6843 7.89697 41.8718 8.44776C42.0476 8.98682 41.8953 9.57276 41.4851 9.97119L37.0086 14.2485C36.9031 14.3423 36.8562 14.4829 36.8797 14.6235L37.9343 20.6704C38.0281 21.2212 37.8054 21.7837 37.3484 22.1235C37.0906 22.3345 36.7742 22.4282 36.4461 22.4282ZM30.0008 1.06494C29.9304 1.06494 29.7078 1.07666 29.6023 1.31104L26.8367 6.80713C26.614 7.24072 26.1922 7.54541 25.7 7.61572L19.5008 8.49463C19.2429 8.52979 19.1609 8.729 19.1375 8.7876C19.114 8.85791 19.0789 9.04541 19.2429 9.20947L23.7195 13.4868C24.0828 13.8267 24.2468 14.3306 24.1531 14.811L23.0984 20.8579C23.0633 21.0806 23.2039 21.2212 23.2625 21.2681C23.3211 21.3032 23.5086 21.4321 23.7429 21.3032L29.2859 18.4556C29.7195 18.2329 30.2468 18.2329 30.6804 18.4556L36.2234 21.3032C36.4578 21.4204 36.657 21.3032 36.7039 21.2681C36.7625 21.2212 36.9148 21.0923 36.8679 20.8579L35.8132 14.811C35.7312 14.3188 35.8953 13.8267 36.2468 13.4868L40.7234 9.20947C40.8992 9.04541 40.8523 8.85791 40.8289 8.7876C40.8054 8.729 40.7234 8.52979 40.4656 8.49463L34.2664 7.61572C33.7742 7.54541 33.3523 7.24072 33.1297 6.80713L30.364 1.31104C30.282 1.08838 30.0593 1.06494 30.0008 1.06494Z" fill="#000E0A"/>
<path d="M24.9316 60.002C22.3066 60.002 21.1465 58.877 20.1152 57.8809C19.2363 57.0254 18.5449 56.3574 17.0215 56.3574H15.5332C15.3926 56.3574 15.252 56.2988 15.1582 56.2051C15.0527 56.0996 15.0059 55.9707 15.0059 55.8301V39.1426C15.0059 38.8496 15.2402 38.6035 15.5449 38.6035H17.4902C18.8496 38.6035 20.1387 38.0879 21.123 37.1387L23.0566 35.2754C25.4355 32.9785 25.7402 30.459 25.9395 28.7832C25.9629 28.6309 25.9746 28.4902 25.998 28.3613C26.2324 26.6035 27.7324 25.291 29.502 25.291C31.459 25.291 33.041 26.873 33.041 28.8301C33.041 29.2168 33.041 29.5801 33.041 29.9316C33.0527 32.123 33.0645 33.7168 32.3613 35.873L31.4824 38.5684H41.9238C43.623 38.5684 44.9941 39.9395 45.0059 41.6387C45.0059 42.7402 44.4316 43.7129 43.5527 44.252C43.6934 44.3574 43.8223 44.4746 43.9512 44.6035C44.5488 45.2129 44.8535 46.0215 44.8301 46.8652C44.7949 48.0254 44.0801 49.0215 43.084 49.5137C43.1543 49.5723 43.2246 49.6426 43.2832 49.7012C43.8691 50.3105 44.1738 51.0957 44.1504 51.9395C44.1152 53.0527 43.4473 54.0254 42.5098 54.5293C43.2012 55.0918 43.6465 55.9473 43.6465 56.9082C43.6465 58.6074 42.2637 59.9785 40.5762 59.9785H24.9316C24.9434 60.0019 24.9434 60.002 24.9316 60.002ZM17.0215 55.291C18.9785 55.291 19.9395 56.2168 20.8652 57.1191C21.8379 58.0566 22.752 58.9355 24.9434 58.9355C24.9434 58.9355 24.9434 58.9355 24.9551 58.9355H40.5527C41.6543 58.9355 42.5566 58.0332 42.5566 56.9316C42.5566 55.8301 41.6543 54.9277 40.5527 54.9277C40.2598 54.9277 40.0137 54.6934 40.0137 54.3887C40.0137 54.084 40.248 53.8496 40.5527 53.8496H40.998C42.0996 53.8496 43.0371 52.9824 43.0723 51.916C43.0957 51.3652 42.8965 50.8496 42.5098 50.4512C42.123 50.0527 41.6191 49.8418 41.0684 49.8418C40.7754 49.8418 40.5293 49.6074 40.5293 49.3027C40.5293 49.0098 40.7637 48.7637 41.0684 48.7637H41.6895C42.8027 48.7637 43.7285 47.8965 43.7637 46.8184C43.7871 46.2676 43.5762 45.7402 43.1895 45.3301C42.8027 44.9316 42.2754 44.709 41.7246 44.709C41.4316 44.709 41.1855 44.4746 41.1855 44.1699C41.1855 43.8652 41.4199 43.6309 41.7246 43.6309H41.9355C43.0488 43.6309 43.9395 42.7285 43.9395 41.6152C43.9395 40.5137 43.0371 39.6113 41.9355 39.6113H31.3535C31.0488 39.6113 30.7559 39.459 30.5684 39.2129C30.3926 38.9668 30.334 38.6387 30.4277 38.3457L31.3535 35.5098C32.0098 33.5176 31.998 32.0762 31.9863 29.9082C31.9863 29.5566 31.9863 29.1934 31.9863 28.8066C31.9863 27.4473 30.873 26.334 29.5137 26.334C28.2832 26.334 27.2285 27.2598 27.0645 28.4785C27.0527 28.6074 27.0293 28.748 27.0176 28.8887C26.8066 30.5996 26.4668 33.459 23.8066 36.0137L21.873 37.877C20.6895 39.0137 19.1426 39.6348 17.502 39.6348H16.0957V55.2559L17.0215 55.291Z" fill="#000E0A"/>
<path d="M40.7686 54.9202H37.6514C37.3584 54.9202 37.1123 54.6858 37.1123 54.3811C37.1123 54.0764 37.3467 53.842 37.6514 53.842H40.7686C41.0615 53.842 41.3076 54.0764 41.3076 54.3811C41.3076 54.6858 41.0732 54.9202 40.7686 54.9202Z" fill="#000E0A"/>
<path d="M40.834 49.8394H37.6465C37.3535 49.8394 37.1074 49.605 37.1074 49.3003C37.1074 49.0073 37.3418 48.7612 37.6465 48.7612H40.834C41.127 48.7612 41.373 48.9956 41.373 49.3003C41.373 49.605 41.1387 49.8394 40.834 49.8394Z" fill="#000E0A"/>
<path d="M41.6934 44.7263H37.6504C37.3574 44.7263 37.1113 44.4919 37.1113 44.1873C37.1113 43.8943 37.3457 43.6482 37.6504 43.6482H41.6934C41.9863 43.6482 42.2324 43.8826 42.2324 44.1873C42.2324 44.4802 41.9863 44.7263 41.6934 44.7263Z" fill="#000E0A"/>
<path d="M14.2148 37.1133H4.59375C3.57422 37.1133 2.74219 37.9453 2.74219 38.9648V56.3437C2.74219 57.3633 3.57422 58.1953 4.59375 58.1953H8.8125H9.99609H14.2148C15.2344 58.1953 16.0664 57.3633 16.0664 56.3437V38.9531C16.0664 37.9336 15.2344 37.1133 14.2148 37.1133ZM15 56.332C15 56.7656 14.6484 57.1172 14.2148 57.1172H9.99609H8.8125H4.59375C4.16016 57.1172 3.80859 56.7656 3.80859 56.332V38.9531C3.80859 38.5195 4.16016 38.168 4.59375 38.168H14.2148C14.6484 38.168 15 38.5195 15 38.9531V56.332Z" fill="#000E0A"/>
</g>
<defs>
<clipPath id="clip0_531_39">
<rect width="60" height="60" fill="white"/>
</clipPath>
</defs>
</svg>
