<svg width="62" height="60" viewBox="0 0 62 60" fill="none" xmlns="http://www.w3.org/2000/svg">
    <g clip-path="url(#clip0_751_1936)">
        <path d="M2.52627 49.7549L27.5218 6.46068C29.0157 3.87338 32.7501 3.87338 34.2435 6.46068L59.2395 49.7549C60.7334 52.3418 58.8662 55.5758 55.8785 55.5758H5.88733C2.89962 55.5758 1.03242 52.3418 2.52627 49.7549Z" fill="#1BD9BF"/>
        <path d="M47.1586 30.0046C46.8499 30.0046 46.5472 29.8789 46.3289 29.6606C46.1101 29.4423 45.9849 29.1396 45.9849 28.8304C45.9849 28.5217 46.1101 28.219 46.3289 28.0007C46.5472 27.7824 46.8499 27.6567 47.1586 27.6567C47.4677 27.6567 47.7704 27.7824 47.9887 28.0007C48.2071 28.219 48.3327 28.5217 48.3327 28.8304C48.3327 29.1396 48.2071 29.4423 47.9887 29.6606C47.7704 29.8789 47.4677 30.0046 47.1586 30.0046Z" fill="#000E0A"/>
        <path d="M55.8785 56.7499H5.88736C4.0596 56.7499 2.42311 55.8051 1.50946 54.2227C0.595806 52.6399 0.595806 50.7502 1.50946 49.1678L26.5055 5.87359C27.4191 4.29122 29.0556 3.34638 30.8829 3.34638C32.7102 3.34638 34.3467 4.29122 35.2604 5.87359L45.6252 23.8255C45.9494 24.3869 45.7568 25.1052 45.1954 25.4295C44.6335 25.7533 43.9157 25.5611 43.5915 24.9997L33.2271 7.04776C32.7377 6.20062 31.8612 5.69426 30.8829 5.69426C29.9046 5.69426 29.0281 6.20062 28.5387 7.04776L3.54315 50.3416C3.05376 51.1892 3.05376 52.201 3.54315 53.0486C4.03208 53.8962 4.90858 54.4021 5.88736 54.4021H55.8785C56.8573 54.4021 57.7333 53.8962 58.2227 53.0486C58.7121 52.201 58.7121 51.1892 58.2227 50.3416L48.2033 32.9873C47.879 32.4259 48.0717 31.708 48.633 31.3838C49.1944 31.0595 49.9127 31.2517 50.237 31.8135L60.2564 49.1678C61.17 50.7502 61.17 52.6399 60.2564 54.2227C59.3423 55.8051 57.7062 56.7499 55.8785 56.7499Z" fill="#000E0A"/>
        <path d="M28.2993 24.5154V35.1113C28.2993 36.5377 29.4561 37.694 30.8825 37.694C32.3089 37.694 33.4657 36.5377 33.4657 35.1113V24.5154C33.4657 23.0889 32.3089 21.9326 30.8825 21.9326C29.4561 21.9326 28.2993 23.0889 28.2993 24.5154Z" fill="#012D22"/>
        <path d="M30.8829 38.8682C28.8111 38.8682 27.126 37.1826 27.126 35.1113V24.5153C27.126 22.4436 28.8111 20.7585 30.8829 20.7585C32.9546 20.7585 34.6397 22.4436 34.6397 24.5153V35.1113C34.6397 37.1826 32.9546 38.8682 30.8829 38.8682ZM30.8829 23.1068C30.1059 23.1068 29.4739 23.7388 29.4739 24.5153V35.1113C29.4739 35.8883 30.1059 36.5203 30.8829 36.5203C31.6598 36.5203 32.2919 35.8883 32.2919 35.1113V24.5153C32.2919 23.7388 31.6598 23.1068 30.8829 23.1068Z" fill="#000E0A"/>
        <path d="M28.2993 45.4431C28.2993 46.8695 29.4561 48.0262 30.8825 48.0262C32.3089 48.0262 33.4657 46.8695 33.4657 45.4431C33.4657 44.0166 32.3089 42.8604 30.8825 42.8604C29.4561 42.8599 28.2993 44.0166 28.2993 45.4431Z" fill="#012D22"/>
        <path d="M30.8829 49.1999C28.8111 49.1999 27.126 47.5148 27.126 45.4431C27.126 43.3713 28.8111 41.6862 30.8829 41.6862C32.9546 41.6862 34.6397 43.3713 34.6397 45.4431C34.6397 46.4466 34.249 47.3901 33.5394 48.0996C32.8299 48.8092 31.8864 49.1999 30.8829 49.1999ZM30.8829 44.0341C30.1059 44.0341 29.4739 44.6661 29.4739 45.4431C29.4739 46.22 30.1059 46.8521 30.8829 46.8521C31.259 46.8521 31.613 46.7053 31.8791 46.4393C32.1451 46.1732 32.2919 45.8192 32.2919 45.4431C32.2919 44.6661 31.6598 44.0341 30.8829 44.0341Z" fill="#000E0A"/>
    </g>
    <defs>
        <clipPath id="clip0_751_1936">
            <rect width="60.1173" height="60" fill="white" transform="translate(0.941406)"/>
        </clipPath>
    </defs>
</svg>
