<svg width="16" height="18" viewBox="0 0 16 18" fill="none" xmlns="http://www.w3.org/2000/svg">
<path d="M1.3335 6.66666H14.6668M1.3335 6.66666V14.0002C1.3335 14.9336 1.3335 15.4 1.51515 15.7566C1.67494 16.0702 1.92972 16.3254 2.24333 16.4852C2.5995 16.6667 3.06599 16.6667 3.99759 16.6667H12.0027C12.9343 16.6667 13.4002 16.6667 13.7563 16.4852C14.0699 16.3254 14.3256 16.0702 14.4854 15.7566C14.6668 15.4004 14.6668 14.9346 14.6668 14.003V6.66666M1.3335 6.66666V6.00015C1.3335 5.06673 1.3335 4.59967 1.51515 4.24315C1.67494 3.92955 1.92972 3.67477 2.24333 3.51498C2.59985 3.33332 3.0669 3.33332 4.00033 3.33332H4.66683M14.6668 6.66666V5.99741C14.6668 5.06582 14.6668 4.59932 14.4854 4.24315C14.3256 3.92955 14.0699 3.67477 13.7563 3.51498C13.3998 3.33332 12.9337 3.33332 12.0003 3.33332H11.3335M4.66683 3.33332H11.3335M4.66683 3.33332V1.66666M11.3335 3.33332V1.66666M10.5002 9.99999L7.16683 13.3333L5.50016 11.6667" stroke="#1BD9BF" stroke-width="1.5" stroke-linecap="round" stroke-linejoin="round"/>
</svg>
