<svg width="24" height="22" viewBox="0 0 24 22" fill="none" xmlns="http://www.w3.org/2000/svg">
<path d="M17 6H22C22.6904 6 23.25 6.55964 23.25 7.25V21L19.0837 17.5387C18.8593 17.3523 18.5759 17.25 18.2842 17.25H8.25C7.55964 17.25 7 16.6904 7 16V12.25M17 6V2.25C17 1.55964 16.4404 1 15.75 1H2C1.30964 1 0.75 1.55964 0.75 2.25V16.0004L4.91626 12.5385C5.14069 12.3521 5.42405 12.25 5.71582 12.25H7M17 6V11C17 11.6904 16.4404 12.25 15.75 12.25H7" stroke="#012D22" stroke-width="1.5" stroke-linecap="round" stroke-linejoin="round"/>
</svg>
