<svg width="60" height="60" viewBox="0 0 60 60" fill="none" xmlns="http://www.w3.org/2000/svg">
<circle cx="30" cy="30" r="28" fill="#1BD9BF"/>
<path d="M57.6021 18.4231C56.0711 14.8659 53.889 11.6563 51.1163 8.8838C48.3437 6.11113 45.1342 3.92901 41.577 2.39803C37.88 0.806761 33.9849 0 30 0C24.5828 0 18.9359 1.84986 13.6697 5.34944C13.0218 5.78 12.8456 6.65423 13.2762 7.30197C13.7068 7.94986 14.581 8.12592 15.2287 7.69549C20.0315 4.50394 25.1393 2.8169 30 2.8169C44.7348 2.8169 57.1831 15.2652 57.1831 30C57.1831 44.7348 44.7348 57.1831 30 57.1831C15.2652 57.1831 2.8169 44.7348 2.8169 30C2.8169 25.1403 4.50352 20.0323 7.69423 15.2286C8.12465 14.5806 7.94831 13.7065 7.30042 13.2761C6.65225 12.8456 5.77831 13.0221 5.34789 13.67C1.8493 18.9372 0 24.5839 0 30C0 33.9849 0.806761 37.88 2.39789 41.5769C3.92887 45.1341 6.11099 48.3437 8.88366 51.1162C11.6563 53.889 14.8658 56.071 18.4231 57.6021C22.12 59.1932 26.0151 60 30 60C33.9849 60 37.88 59.1932 41.5769 57.6021C45.1341 56.0711 48.3437 53.889 51.1162 51.1163C53.8889 48.3437 56.071 45.1342 57.602 41.577C59.1932 37.88 60 33.9849 60 30C60 26.0151 59.1932 22.12 57.6021 18.4231Z" fill="#000E0A"/>
<path d="M10.1409 8.7324C9.36341 8.7324 8.73242 9.36338 8.73242 10.1408C8.73242 10.9183 9.36341 11.5493 10.1409 11.5493C10.9183 11.5493 11.5493 10.9183 11.5493 10.1408C11.5493 9.36338 10.9183 8.7324 10.1409 8.7324Z" fill="#000E0A"/>
<path d="M43.3883 20.0804L43.3886 20.0807C44.0863 20.7779 44.4688 21.7004 44.4688 22.6875C44.4688 23.6745 44.0864 24.5971 43.3883 25.2946L43.388 25.2949L29.3258 39.3571C28.6276 40.0553 27.7049 40.4375 26.7188 40.4375C25.7326 40.4375 24.8099 40.0553 24.1117 39.3571L17.0804 32.3258L17.0801 32.3255C16.3824 31.6284 16 30.7058 16 29.7188C16 28.7317 16.3824 27.8092 17.0805 27.1116L17.0808 27.1113C17.7786 26.4135 18.7012 26.0312 19.6875 26.0312C20.6737 26.0312 21.5964 26.4135 22.2946 27.1117L26.0116 30.8287L26.7188 31.5359L27.4259 30.8287L38.1742 20.0804C38.8724 19.3822 39.795 19 40.7812 19C41.7675 19 42.6901 19.3822 43.3883 20.0804Z" fill="#000E0A" stroke="#1BD9BF" stroke-width="2"/>
</svg>
