<svg width="24" height="24" viewBox="0 0 24 24" fill="none" xmlns="http://www.w3.org/2000/svg">
    <path d="M4.5 7.5C5.29565 7.5 6.05871 7.18393 6.62132 6.62132C7.18393 6.05871 7.5 5.29565 7.5 4.5C7.5 3.70435 7.18393 2.94129 6.62132 2.37868C6.05871 1.81607 5.29565 1.5 4.5 1.5C3.70435 1.5 2.94129 1.81607 2.37868 2.37868C1.81607 2.94129 1.5 3.70435 1.5 4.5C1.5 5.29565 1.81607 6.05871 2.37868 6.62132C2.94129 7.18393 3.70435 7.5 4.5 7.5ZM4.5 3C4.89782 3 5.27936 3.15804 5.56066 3.43934C5.84196 3.72064 6 4.10218 6 4.5C6 4.89782 5.84196 5.27936 5.56066 5.56066C5.27936 5.84196 4.89782 6 4.5 6C4.10218 6 3.72064 5.84196 3.43934 5.56066C3.15804 5.27936 3 4.89782 3 4.5C3 4.10218 3.15804 3.72064 3.43934 3.43934C3.72064 3.15804 4.10218 3 4.5 3ZM19.5 9C18.7044 9 17.9413 9.31607 17.3787 9.87868C16.8161 10.4413 16.5 11.2044 16.5 12C16.5 12.7956 16.8161 13.5587 17.3787 14.1213C17.9413 14.6839 18.7044 15 19.5 15C20.2956 15 21.0587 14.6839 21.6213 14.1213C22.1839 13.5587 22.5 12.7956 22.5 12C22.5 11.2044 22.1839 10.4413 21.6213 9.87868C21.0587 9.31607 20.2956 9 19.5 9ZM19.5 13.5C19.1022 13.5 18.7206 13.342 18.4393 13.0607C18.158 12.7794 18 12.3978 18 12C18 11.6022 18.158 11.2206 18.4393 10.9393C18.7206 10.658 19.1022 10.5 19.5 10.5C19.8978 10.5 20.2794 10.658 20.5607 10.9393C20.842 11.2206 21 11.6022 21 12C21 12.3978 20.842 12.7794 20.5607 13.0607C20.2794 13.342 19.8978 13.5 19.5 13.5ZM4.5 16.5C3.70435 16.5 2.94129 16.8161 2.37868 17.3787C1.81607 17.9413 1.5 18.7044 1.5 19.5C1.5 20.2956 1.81607 21.0587 2.37868 21.6213C2.94129 22.1839 3.70435 22.5 4.5 22.5C5.29565 22.5 6.05871 22.1839 6.62132 21.6213C7.18393 21.0587 7.5 20.2956 7.5 19.5C7.5 18.7044 7.18393 17.9413 6.62132 17.3787C6.05871 16.8161 5.29565 16.5 4.5 16.5ZM4.5 21C4.10218 21 3.72064 20.842 3.43934 20.5607C3.15804 20.2794 3 19.8978 3 19.5C3 19.1022 3.15804 18.7206 3.43934 18.4393C3.72064 18.158 4.10218 18 4.5 18C4.89782 18 5.27936 18.158 5.56066 18.4393C5.84196 18.7206 6 19.1022 6 19.5C6 19.8978 5.84196 20.2794 5.56066 20.5607C5.27936 20.842 4.89782 21 4.5 21ZM9 3.75H21.75C21.9489 3.75 22.1397 3.82902 22.2803 3.96967C22.421 4.11032 22.5 4.30109 22.5 4.5C22.5 4.69891 22.421 4.88968 22.2803 5.03033C22.1397 5.17098 21.9489 5.25 21.75 5.25H9C8.80109 5.25 8.61032 5.17098 8.46967 5.03033C8.32902 4.88968 8.25 4.69891 8.25 4.5C8.25 4.30109 8.32902 4.11032 8.46967 3.96967C8.61032 3.82902 8.80109 3.75 9 3.75ZM2.25 11.25H15C15.1989 11.25 15.3897 11.329 15.5303 11.4697C15.671 11.6103 15.75 11.8011 15.75 12C15.75 12.1989 15.671 12.3897 15.5303 12.5303C15.3897 12.671 15.1989 12.75 15 12.75H2.25C2.05109 12.75 1.86032 12.671 1.71967 12.5303C1.57902 12.3897 1.5 12.1989 1.5 12C1.5 11.8011 1.57902 11.6103 1.71967 11.4697C1.86032 11.329 2.05109 11.25 2.25 11.25ZM21.75 20.25H9C8.80109 20.25 8.61032 20.171 8.46967 20.0303C8.32902 19.8897 8.25 19.6989 8.25 19.5C8.25 19.3011 8.32902 19.1103 8.46967 18.9697C8.61032 18.829 8.80109 18.75 9 18.75H21.75C21.9489 18.75 22.1397 18.829 22.2803 18.9697C22.421 19.1103 22.5 19.3011 22.5 19.5C22.5 19.6989 22.421 19.8897 22.2803 20.0303C22.1397 20.171 21.9489 20.25 21.75 20.25Z" fill="#012D22"/>
</svg>
