<svg width="14" height="14" viewBox="0 0 14 14" fill="none" xmlns="http://www.w3.org/2000/svg">
<path d="M12.9531 3.78169H2.46133C2.33555 3.78169 2.23438 3.68052 2.23438 3.55747C2.23438 3.43442 2.33555 3.33325 2.46133 3.33325H12.9531C13.0789 3.33325 13.1773 3.43442 13.1773 3.55747C13.1773 3.68052 13.0762 3.78169 12.9531 3.78169Z" fill="#B8C3C0"/>
<path d="M3.63711 2.68525C3.21055 2.68525 2.86328 2.33799 2.86328 1.91416V0.82041C2.86328 0.393848 3.21055 0.0493164 3.63711 0.0493164C4.06367 0.0493164 4.4082 0.396582 4.4082 0.82041V1.91416C4.41094 2.34072 4.06367 2.68525 3.63711 2.68525ZM3.63711 0.500488C3.45937 0.500488 3.31445 0.64541 3.31445 0.82041V1.91416C3.31445 2.09189 3.45937 2.23408 3.63711 2.23408C3.81484 2.23408 3.95703 2.08916 3.95703 1.91416V0.82041C3.95977 0.642676 3.81484 0.500488 3.63711 0.500488Z" fill="#B8C3C0"/>
<path d="M9.70664 2.68525C9.28008 2.68525 8.93555 2.33799 8.93555 1.91416V0.82041C8.93555 0.393848 9.28281 0.0493164 9.70664 0.0493164C10.1305 0.0493164 10.4805 0.396582 10.4805 0.82041V1.91416C10.4805 2.34072 10.1332 2.68525 9.70664 2.68525ZM9.70664 0.500488C9.52891 0.500488 9.38672 0.64541 9.38672 0.82041V1.91416C9.38672 2.09189 9.53164 2.23408 9.70664 2.23408C9.88164 2.23408 10.0293 2.08916 10.0293 1.91416V0.82041C10.0293 0.642676 9.88438 0.500488 9.70664 0.500488Z" fill="#B8C3C0"/>
<path d="M13.0699 9.996C12.9441 9.996 12.843 9.89482 12.843 9.77178V1.92686C12.843 1.74092 12.6926 1.59053 12.5094 1.59053H10.3629C10.2371 1.59053 10.1387 1.48936 10.1387 1.36631C10.1387 1.24326 10.2398 1.14209 10.3629 1.14209H12.5094C12.9441 1.14209 13.2941 1.49482 13.2941 1.92959V9.77178C13.2941 9.89482 13.1957 9.996 13.0699 9.996Z" fill="#B8C3C0"/>
<path d="M9.43359 12.857H6.74844C6.62266 12.857 6.52148 12.7558 6.52148 12.6328C6.52148 12.5097 6.62266 12.4086 6.74844 12.4086H9.43359C9.55937 12.4086 9.65781 12.5097 9.65781 12.6328C9.65781 12.7558 9.55937 12.857 9.43359 12.857Z" fill="#B8C3C0"/>
<path d="M4.56133 12.8569H0.834375C0.399609 12.8569 0.046875 12.5042 0.046875 12.0722V1.92764C0.046875 1.49287 0.399609 1.14014 0.834375 1.14014H2.98086C3.10664 1.14014 3.20781 1.24131 3.20781 1.36435C3.20781 1.4874 3.10664 1.58857 2.98086 1.58857H0.834375C0.648438 1.58857 0.498047 1.73896 0.498047 1.9249V12.0694C0.498047 12.2554 0.648438 12.403 0.834375 12.403H4.56133C4.68711 12.403 4.78555 12.5042 4.78555 12.63C4.78555 12.7558 4.68711 12.8569 4.56133 12.8569Z" fill="#B8C3C0"/>
<path d="M9.06855 1.5915H4.31895C4.19316 1.5915 4.09473 1.49033 4.09473 1.36729C4.09473 1.24424 4.1959 1.14307 4.31895 1.14307H9.06855C9.19434 1.14307 9.29277 1.24424 9.29277 1.36729C9.29277 1.49033 9.19434 1.5915 9.06855 1.5915Z" fill="#B8C3C0"/>
<path d="M9.01387 11.5446H1.58457C1.45879 11.5446 1.36035 11.4435 1.36035 11.3204V4.86729C1.36035 4.7415 1.46152 4.64307 1.58457 4.64307H11.7564C11.8822 4.64307 11.9807 4.74424 11.9807 4.86729V9.13291C11.9807 9.25869 11.8795 9.35713 11.7564 9.35713C11.6334 9.35713 11.5322 9.25596 11.5322 9.13291V5.09424H1.81152V11.0962H9.01387C9.13965 11.0962 9.23809 11.1974 9.23809 11.3204C9.23809 11.4435 9.13965 11.5446 9.01387 11.5446Z" fill="#B8C3C0"/>
<path d="M11.4301 13.9509C10.0383 13.9509 8.90625 12.8188 8.90625 11.4298C8.90625 10.0407 10.0383 8.90869 11.4301 8.90869C12.8219 8.90869 13.9512 10.038 13.9512 11.4298C13.9512 12.8216 12.8219 13.9509 11.4301 13.9509ZM11.4301 9.35713C10.2871 9.35713 9.35742 10.2868 9.35742 11.4298C9.35742 12.5728 10.2871 13.5024 11.4301 13.5024C12.573 13.5024 13.5027 12.5728 13.5027 11.4298C13.5027 10.2868 12.573 9.35713 11.4301 9.35713Z" fill="#B8C3C0"/>
<path d="M11.374 12.2254C11.3166 12.2254 11.2592 12.2035 11.2154 12.1598L10.6467 11.591C10.5592 11.5035 10.5592 11.3613 10.6467 11.2711C10.7342 11.1836 10.8764 11.1836 10.9666 11.2711L11.3768 11.6813L12.2545 10.8008C12.342 10.7133 12.4842 10.7133 12.5744 10.8008C12.6619 10.8883 12.6619 11.0305 12.5744 11.1207L11.5354 12.1598C11.4916 12.2035 11.4314 12.2254 11.374 12.2254Z" fill="#B8C3C0"/>
<path d="M11.718 7.25439H1.67734C1.55156 7.25439 1.45312 7.15322 1.45312 7.02744C1.45312 6.90166 1.55156 6.80322 1.67734 6.80322H11.718C11.8438 6.80322 11.9422 6.90439 11.9422 7.02744C11.9422 7.15049 11.841 7.25439 11.718 7.25439Z" fill="#B8C3C0"/>
<path d="M11.0754 9.38716H1.67734C1.55156 9.38716 1.45312 9.28599 1.45312 9.16294C1.45312 9.03989 1.5543 8.93872 1.67734 8.93872H11.0754C11.2012 8.93872 11.2996 9.03989 11.2996 9.16294C11.2996 9.28599 11.1984 9.38716 11.0754 9.38716Z" fill="#B8C3C0"/>
<path d="M3.6207 11.5118C3.49492 11.5118 3.39648 11.4106 3.39648 11.2876V4.86729C3.39648 4.7415 3.49766 4.64307 3.6207 4.64307C3.74375 4.64307 3.84766 4.74424 3.84766 4.86729V11.2849C3.84492 11.4106 3.74648 11.5118 3.6207 11.5118Z" fill="#B8C3C0"/>
<path d="M5.65469 11.5117C5.52891 11.5117 5.42773 11.4105 5.42773 11.2875V4.86716C5.42773 4.74138 5.52891 4.64294 5.65469 4.64294C5.78047 4.64294 5.87891 4.74412 5.87891 4.86716V11.2847C5.88164 11.4105 5.78047 11.5117 5.65469 11.5117Z" fill="#B8C3C0"/>
<path d="M7.68887 11.5117C7.56309 11.5117 7.46191 11.4105 7.46191 11.2875V4.86716C7.46191 4.74138 7.56309 4.64294 7.68887 4.64294C7.81465 4.64294 7.91309 4.74412 7.91309 4.86716V11.2847C7.91582 11.4105 7.81465 11.5117 7.68887 11.5117Z" fill="#B8C3C0"/>
<path d="M9.72324 10.0953C9.59746 10.0953 9.49902 9.99416 9.49902 9.86838V4.86448C9.49902 4.7387 9.6002 4.64026 9.72324 4.64026C9.84629 4.64026 9.9502 4.74143 9.9502 4.86448V9.87112C9.9502 9.9969 9.84902 10.0953 9.72324 10.0953Z" fill="#B8C3C0"/>
<path d="M5.65488 12.857C5.64121 12.857 5.6248 12.8543 5.61113 12.8515C5.59746 12.8488 5.58379 12.8433 5.57012 12.8379C5.55645 12.8324 5.54277 12.8242 5.53184 12.816C5.51816 12.8078 5.50723 12.7968 5.49629 12.7886C5.45527 12.7476 5.43066 12.6875 5.43066 12.6301C5.43066 12.6164 5.4334 12.6 5.43613 12.5863C5.43887 12.5726 5.44434 12.559 5.4498 12.5453C5.45527 12.5316 5.46348 12.5179 5.47168 12.507C5.47988 12.4961 5.48809 12.4824 5.49902 12.4715C5.50996 12.4605 5.5209 12.4523 5.53457 12.4441C5.54551 12.4359 5.55918 12.4304 5.57285 12.4222C5.58652 12.4168 5.6002 12.4113 5.61387 12.4086C5.6877 12.3949 5.76426 12.4168 5.81621 12.4715C5.82715 12.4824 5.83535 12.4933 5.84355 12.507C5.85176 12.5207 5.85996 12.5316 5.86543 12.5453C5.8709 12.559 5.87637 12.5726 5.8791 12.5863C5.88184 12.6 5.88457 12.6164 5.88457 12.6301C5.88457 12.6902 5.85996 12.7476 5.81895 12.7886C5.80801 12.7996 5.79707 12.8078 5.7834 12.816C5.76973 12.8242 5.75879 12.8297 5.74512 12.8379C5.73145 12.8433 5.71777 12.8488 5.7041 12.8515C5.68496 12.857 5.66855 12.857 5.65488 12.857Z" fill="#B8C3C0"/>
<path d="M1.53086 3.77896C1.51719 3.77896 1.50078 3.77622 1.48711 3.77349C1.47344 3.77075 1.45703 3.76528 1.44609 3.75981C1.43242 3.75435 1.41875 3.74614 1.40781 3.73794C1.39414 3.72974 1.3832 3.72153 1.37227 3.7106C1.33125 3.66958 1.30664 3.60942 1.30664 3.552C1.30664 3.53833 1.30938 3.52192 1.31211 3.50825C1.31484 3.49458 1.32031 3.48091 1.32578 3.46724C1.33125 3.45356 1.33945 3.43989 1.34766 3.42896C1.35586 3.41528 1.36406 3.40435 1.375 3.39341C1.38594 3.38247 1.39688 3.37427 1.41055 3.36606C1.42148 3.35786 1.43516 3.34966 1.44883 3.34419C1.4625 3.33872 1.47617 3.33325 1.48984 3.33052C1.51992 3.32505 1.55 3.32505 1.57734 3.33052C1.59102 3.33325 1.60469 3.33872 1.61836 3.34419C1.63203 3.34966 1.6457 3.35786 1.65664 3.36606C1.67031 3.37427 1.68125 3.38247 1.69219 3.39341C1.70312 3.40435 1.71133 3.41528 1.71953 3.42896C1.72773 3.43989 1.73594 3.45356 1.74141 3.46724C1.74687 3.48091 1.75234 3.49458 1.75508 3.50825C1.75781 3.52192 1.76055 3.53833 1.76055 3.552C1.76055 3.56567 1.75781 3.58208 1.75508 3.59575C1.75234 3.60942 1.74687 3.6231 1.74141 3.63677C1.73594 3.65044 1.72773 3.66411 1.71953 3.67505C1.71133 3.68872 1.70312 3.69966 1.69219 3.7106C1.68125 3.72153 1.67031 3.72974 1.65664 3.73794C1.6457 3.74614 1.63203 3.75435 1.61836 3.75981C1.60469 3.76528 1.59102 3.77075 1.57734 3.77349C1.56094 3.77896 1.54453 3.77896 1.53086 3.77896Z" fill="#B8C3C0"/>
</svg>
