<svg width="19" height="17" viewBox="0 0 19 17" fill="none" xmlns="http://www.w3.org/2000/svg">
<path d="M16.7369 5.41109H12.6107V2.69192C12.6107 1.68032 11.7877 0.857178 10.7761 0.857178H1.83451C0.822913 0.857178 0 1.68009 0 2.69192V7.78365C0 8.64834 0.601174 9.37507 1.40779 9.56812L1.03455 11.0856C1.00173 11.2192 1.05154 11.3595 1.16149 11.4426C1.22278 11.4887 1.29577 11.5121 1.369 11.5121C1.42776 11.5121 1.48652 11.4972 1.53955 11.4669L4.78208 9.61816H5.96101V12.3373C5.96101 13.3489 6.78392 14.1718 7.79552 14.1718H13.2756L16.1385 16.1397C16.1968 16.1797 16.265 16.2003 16.3336 16.2003C16.3775 16.2003 16.4215 16.1918 16.4631 16.1751C16.5705 16.1314 16.6488 16.0369 16.671 15.9233L17.0238 14.1496C17.8996 14.0114 18.5714 13.2514 18.5714 12.3373V7.2456C18.5714 6.234 17.7485 5.41109 16.7369 5.41109ZM4.69095 8.92953C4.63104 8.92953 4.57227 8.94514 4.5204 8.97475L1.89488 10.4716L2.16918 9.35602C2.1942 9.25341 2.17102 9.14484 2.10583 9.06151C2.04064 8.97819 1.94056 8.92953 1.83474 8.92953C1.20281 8.92953 0.688859 8.41558 0.688859 7.78365V2.69192C0.688859 2.05998 1.20281 1.54581 1.83474 1.54581H10.7761C11.4081 1.54581 11.922 2.05998 11.922 2.69192V5.41109H7.79552C6.78392 5.41109 5.96101 6.234 5.96101 7.2456V8.92953H4.69095ZM17.8828 12.3373C17.8828 12.9693 17.3689 13.4832 16.7369 13.4832C16.5726 13.4832 16.4312 13.5991 16.3993 13.7605L16.0976 15.2762L13.5775 13.5438C13.5201 13.5043 13.4522 13.4832 13.3824 13.4832H7.79529C7.16336 13.4832 6.64941 12.9693 6.64941 12.3373V7.2456C6.64941 6.61366 7.16336 6.09972 7.79529 6.09972H16.7367C17.3686 6.09972 17.8826 6.61366 17.8826 7.2456L17.8828 12.3373Z" fill="#B8C3C0"/>
<path d="M13.9634 8.06042H10.5689C10.3789 8.06042 10.2246 8.21445 10.2246 8.40474C10.2246 8.59503 10.3789 8.74905 10.5689 8.74905H13.9634C14.1535 8.74905 14.3077 8.59503 14.3077 8.40474C14.3077 8.21445 14.1535 8.06042 13.9634 8.06042Z" fill="#B8C3C0"/>
<path d="M13.4663 9.55231H11.066C10.8759 9.55231 10.7217 9.70633 10.7217 9.89662C10.7217 10.0869 10.8759 10.2409 11.066 10.2409H13.4663C13.6564 10.2409 13.8106 10.0869 13.8106 9.89662C13.8106 9.70633 13.6564 9.55231 13.4663 9.55231Z" fill="#B8C3C0"/>
<path d="M13.217 11.1338H11.314C11.124 11.1338 10.9697 11.2878 10.9697 11.4781C10.9697 11.6684 11.124 11.8224 11.314 11.8224H13.217C13.407 11.8224 13.5613 11.6684 13.5613 11.4781C13.5613 11.2878 13.407 11.1338 13.217 11.1338Z" fill="#B8C3C0"/>
</svg>
