<svg width="35" height="35" viewBox="0 0 35 35" fill="none" xmlns="http://www.w3.org/2000/svg">
<rect x="0.5" y="0.5" width="34" height="34" rx="17" stroke="#012D22"/>
<path d="M17 9.5C19.001 11.6907 20.1382 14.5336 20.2 17.5C20.1382 20.4664 19.001 23.3093 17 25.5M17 9.5C14.999 11.6907 13.8618 14.5336 13.8 17.5C13.8618 20.4664 14.999 23.3093 17 25.5M17 9.5C12.5817 9.5 9 13.0817 9 17.5C9 21.9183 12.5817 25.5 17 25.5M17 9.5C21.4183 9.5 25 13.0817 25 17.5C25 21.9183 21.4183 25.5 17 25.5M9.40002 15.1H24.6M9.4 19.9H24.6" stroke="#012D22" stroke-width="1.5" stroke-linecap="round" stroke-linejoin="round"/>
</svg>
