<svg width="24" height="24" viewBox="0 0 24 24" fill="none" xmlns="http://www.w3.org/2000/svg">
<g clip-path="url(#clip0_863_2200)">
<path d="M22.9091 10.6498H3.72417L9.4984 4.87561C9.6026 4.77497 9.68571 4.65459 9.74288 4.5215C9.80006 4.3884 9.83015 4.24525 9.83141 4.1004C9.83267 3.95555 9.80507 3.8119 9.75021 3.67783C9.69536 3.54376 9.61436 3.42195 9.51193 3.31952C9.4095 3.21709 9.28769 3.13609 9.15362 3.08124C9.01955 3.02638 8.8759 2.99878 8.73105 3.00004C8.5862 3.0013 8.44305 3.03139 8.30995 3.08857C8.17686 3.14574 8.05648 3.22885 7.95584 3.33305L0.319407 10.9695C0.114891 11.1741 0 11.4515 0 11.7408C0 12.03 0.114891 12.3075 0.319407 12.512L7.95584 20.1485C8.16159 20.3472 8.43716 20.4572 8.7232 20.4547C9.00923 20.4522 9.28285 20.3375 9.48512 20.1352C9.68738 19.9329 9.80211 19.6593 9.8046 19.3733C9.80708 19.0872 9.69712 18.8117 9.4984 18.6059L3.72417 12.8317H22.9091C23.1984 12.8317 23.4759 12.7167 23.6805 12.5122C23.8851 12.3076 24 12.0301 24 11.7408C24 11.4514 23.8851 11.174 23.6805 10.9694C23.4759 10.7648 23.1984 10.6498 22.9091 10.6498Z" fill="#012D22"/>
</g>
<defs>
<clipPath id="clip0_863_2200">
<rect width="24" height="24" fill="white"/>
</clipPath>
</defs>
</svg>
