<svg width="20" height="22" viewBox="0 0 20 22" fill="none" xmlns="http://www.w3.org/2000/svg">
    <path fill-rule="evenodd" clip-rule="evenodd" d="M6.98963 21.1162C5.14919 21.1162 3.39987 20.376 2.064 19.0324C-0.589978 16.3617 -0.698893 12.1274 1.8206 9.59232L10.0293 1.33477C10.8839 0.474559 12.0375 0 13.2767 0C14.6026 0 15.8629 0.532351 16.8242 1.49925C18.7369 3.42305 18.8103 6.48045 16.9865 8.31423L8.76784 16.5707C8.23549 17.1075 7.51865 17.402 6.74957 17.402C5.93715 17.402 5.16697 17.0775 4.58238 16.4895C3.4121 15.3104 3.37542 13.431 4.50125 12.2974L12.0864 4.67891C12.5199 4.24325 13.2222 4.24102 13.6579 4.67446C14.0925 5.1079 14.0947 5.8114 13.6612 6.24595L6.07719 13.8656C5.81046 14.1345 5.84713 14.6091 6.15943 14.9225C6.32169 15.0859 6.5373 15.1792 6.74957 15.1792C6.87182 15.1792 7.04742 15.1492 7.1919 15.0036L15.4106 6.74719C16.3741 5.77695 16.3019 4.12655 15.2483 3.0663C14.2403 2.05272 12.5299 1.9727 11.6052 2.90181L3.39654 11.1594C1.73614 12.8298 1.84505 15.6593 3.64104 17.4653C4.55571 18.3867 5.74489 18.8935 6.98963 18.8935C8.10212 18.8935 9.13348 18.4734 9.89144 17.7109L18.1012 9.45339C18.5335 9.01884 19.237 9.01551 19.6727 9.44895C20.1072 9.88239 20.1095 10.5848 19.6771 11.0204L11.4674 19.278C10.2893 20.4627 8.69893 21.1162 6.98963 21.1162Z" fill="#012D22"/>
</svg>
