<svg width="20" height="20" viewBox="0 0 20 20" fill="none" xmlns="http://www.w3.org/2000/svg">
<g clip-path="url(#clip0_531_127)">
<path d="M10 0C4.48357 0 0 4.48357 0 10C0 15.5164 4.48357 20 10 20C15.5164 20 20 15.5164 20 10C20 4.48357 15.5164 0 10 0ZM10 18.9906C5.04695 18.9906 1.00939 14.9531 1.00939 10C1.00939 5.04695 5.04695 1.00939 10 1.00939C14.9531 1.00939 18.9906 5.04695 18.9906 10C18.9906 14.9531 14.9531 18.9906 10 18.9906Z" fill="#1BD9BF"/>
<path d="M10.7043 9.95317L13.6385 7.0189C13.8263 6.83111 13.8263 6.50247 13.6385 6.31467C13.4508 6.12688 13.1221 6.12688 12.9343 6.31467L10 9.24895L7.06577 6.31467C6.87798 6.12688 6.54934 6.12688 6.36155 6.31467C6.17375 6.50247 6.17375 6.83111 6.36155 7.0189L9.29582 9.95317L6.36155 12.864C6.17375 13.0518 6.17375 13.3804 6.36155 13.5682C6.45544 13.6621 6.59629 13.709 6.71366 13.709C6.83103 13.709 6.97188 13.6621 7.06577 13.5682L10 10.6339L12.9343 13.5682C13.0282 13.6621 13.1691 13.709 13.2864 13.709C13.4038 13.709 13.5446 13.6621 13.6385 13.5682C13.8263 13.3804 13.8263 13.0518 13.6385 12.864L10.7043 9.95317Z" fill="#1BD9BF"/>
</g>
<defs>
<clipPath id="clip0_531_127">
<rect width="20" height="20" fill="white"/>
</clipPath>
</defs>
</svg>
