<svg width="35" height="35" viewBox="0 0 35 35" fill="none" xmlns="http://www.w3.org/2000/svg">
<rect x="0.5" y="0.5" width="34" height="34" rx="17" stroke="#012D22"/>
<path d="M23.5057 26.1705C24.7358 25.6953 25.7082 24.7228 26.1835 23.4928C26.4085 22.9101 26.5659 22.2453 26.6087 21.2728C26.6188 21.045 26.6267 20.8538 26.634 20.662V14.1647C26.6289 14.0292 26.6233 13.888 26.616 13.7294C26.5733 12.7569 26.4158 12.0888 26.1908 11.5095C25.9585 10.8947 25.6008 10.3441 25.1329 9.88682C24.675 9.42168 24.121 9.06059 23.513 8.83224C22.9303 8.60727 22.2655 8.44979 21.2931 8.40704C20.3133 8.36036 20.0023 8.34967 17.518 8.34967C15.0337 8.34967 14.7221 8.36036 13.7463 8.4031C12.7738 8.44585 12.1057 8.60333 11.5263 8.82831C10.9116 9.06059 10.361 9.4183 9.90314 9.88682C9.43857 10.3446 9.07748 10.8986 8.84857 11.5061C8.6236 12.0888 8.46611 12.7536 8.42337 13.726C8.37668 14.7058 8.366 15.0168 8.366 17.5017C8.366 19.9865 8.37668 20.2976 8.41943 21.2734C8.46218 22.2458 8.61966 22.9146 8.8452 23.4933C9.07748 24.1081 9.43857 24.6587 9.90314 25.1165C10.361 25.5811 10.915 25.9427 11.523 26.1711C12.1057 26.3961 12.7705 26.5536 13.7429 26.5963C14.7187 26.6396 15.0298 26.6503 17.5146 26.6503C19.9995 26.6503 20.3099 26.6396 21.2863 26.5963C22.2588 26.5536 22.9264 26.3955 23.5057 26.1705ZM17.5214 25.0052C15.0793 25.0052 14.7862 24.9945 13.8245 24.9517C12.9307 24.9124 12.4482 24.7622 12.1265 24.6373C11.7299 24.4905 11.3689 24.2582 11.0753 23.9545C10.7715 23.6576 10.5387 23.3004 10.3925 22.9033C10.2676 22.5816 10.1174 22.0951 10.0781 21.2053C10.0353 20.2402 10.0246 19.9505 10.0246 17.5084C10.0246 15.0663 10.0353 14.7733 10.0781 13.8121C10.1174 12.9184 10.2676 12.4358 10.3925 12.1141C10.5393 11.717 10.7715 11.3559 11.0792 11.0629C11.3756 10.7592 11.7333 10.5269 12.1298 10.3801C12.4516 10.2552 12.9381 10.105 13.8278 10.0657C14.793 10.0229 15.0826 10.0122 17.5242 10.0122C19.9657 10.0122 20.2593 10.0229 21.2211 10.0657C22.1148 10.105 22.5974 10.2552 22.9191 10.3801C23.3156 10.5269 23.6767 10.7592 23.9697 11.0629C24.2734 11.3598 24.5063 11.717 24.6525 12.1141C24.7774 12.4358 24.9276 12.9217 24.9669 13.8121C25.0097 14.7772 25.0204 15.0669 25.0204 17.5084C25.0204 19.95 25.0097 20.2362 24.9669 21.2014C24.9276 22.0951 24.7774 22.5777 24.6525 22.8994C24.3449 23.6969 23.7121 24.3297 22.9152 24.6368C22.5934 24.7616 22.1075 24.9118 21.2172 24.9512C20.252 24.9939 19.9629 25.0052 17.5214 25.0052Z" fill="#012D22"/>
<path d="M17.5182 12.7997C14.9225 12.7997 12.8168 14.9055 12.8168 17.5011C12.8168 20.0968 14.9225 22.2026 17.5182 22.2026C20.1138 22.2026 22.2191 20.0968 22.2191 17.5011C22.2191 14.9055 20.1133 12.7997 17.5182 12.7997ZM17.5182 20.5501C15.8342 20.5501 14.4687 19.1845 14.4687 17.5006C14.4687 15.8166 15.8342 14.451 17.5182 14.451C19.2021 14.451 20.5677 15.8166 20.5677 17.5006C20.5677 19.1845 19.2021 20.5501 17.5182 20.5501Z" fill="#012D22"/>
<path d="M23.5013 12.6139C23.5013 12.0075 23.0098 11.5165 22.4034 11.5165C21.7971 11.5165 21.3061 12.0081 21.3061 12.6139C21.3061 13.2196 21.7977 13.7112 22.4034 13.7112C23.0092 13.7112 23.5013 13.2202 23.5013 12.6139Z" fill="#012D22"/>
</svg>
