<svg width="32" height="32" viewBox="0 0 32 32" fill="none" xmlns="http://www.w3.org/2000/svg">
<rect width="32" height="32" rx="10" fill="#F9FBFB"/>
<path d="M14 15.3334V21.3334M14 15.3334H11.0664C10.693 15.3334 10.5065 15.3334 10.3639 15.4061C10.2385 15.47 10.1366 15.5719 10.0727 15.6973C10 15.84 10 16.0268 10 16.4001V21.3334H14M14 15.3334V11.7335C14 11.3601 14 11.1733 14.0727 11.0307C14.1366 10.9052 14.2385 10.8033 14.3639 10.7394C14.5065 10.6667 14.693 10.6667 15.0664 10.6667H16.9331C17.3064 10.6667 17.4935 10.6667 17.6361 10.7394C17.7616 10.8033 17.8632 10.9052 17.9271 11.0307C17.9997 11.1733 18 11.3601 18 11.7335V13.3334M14 21.3334H18M18 21.3334L22 21.3335V14.4001C22 14.0268 21.9997 13.84 21.9271 13.6973C21.8632 13.5719 21.762 13.47 21.6365 13.4061C21.4939 13.3334 21.3067 13.3334 20.9333 13.3334H18M18 21.3334V13.3334" stroke="#012D22" stroke-width="1.5" stroke-linecap="round" stroke-linejoin="round"/>
</svg>
