<svg width="32" height="32" viewBox="0 0 32 32" fill="none" xmlns="http://www.w3.org/2000/svg">
<rect width="32" height="32" rx="10" fill="#F9FBFB"/>
<g clip-path="url(#clip0_677_3238)">
<path d="M22.073 19.717C22.7594 18.5988 23.1218 17.312 23.12 16V15.9998C23.1218 14.6877 22.7594 13.4009 22.073 12.2827L22.0691 12.2766C21.4323 11.2387 20.54 10.3815 19.4775 9.78682C18.4149 9.19215 17.2177 8.87989 16 8.87988C14.7824 8.87988 13.5851 9.19213 12.5226 9.7868C11.46 10.3815 10.5677 11.2387 9.93094 12.2765L9.92699 12.2827C9.24232 13.4017 8.88001 14.688 8.88 15.9999C8.88 17.3117 9.2423 18.598 9.92696 19.717L9.93098 19.7233C10.5678 20.7611 11.4601 21.6183 12.5226 22.213C13.5851 22.8076 14.7824 23.1199 16 23.1199C17.2177 23.1199 18.4149 22.8076 19.4775 22.2129C20.54 21.6183 21.4323 20.7611 22.069 19.7232L22.073 19.717ZM16.9101 21.8996C16.7744 22.0305 16.6183 22.1384 16.4478 22.2189C16.3079 22.2854 16.1549 22.3199 16 22.3199C15.8451 22.3199 15.6921 22.2854 15.5522 22.2189C15.2278 22.0532 14.9501 21.8088 14.7445 21.5081C14.3246 20.9014 14.0134 20.2262 13.8249 19.5128C14.5492 19.4682 15.2742 19.4455 16 19.4447C16.7255 19.4447 17.4506 19.4674 18.1752 19.5128C18.0709 19.8796 17.9405 20.2385 17.7852 20.5868C17.5806 21.0766 17.2835 21.5223 16.9101 21.8996ZM9.69392 16.3999H12.5658C12.5845 17.2012 12.6713 17.9995 12.8254 18.7861C12.0404 18.8552 11.2573 18.9501 10.4763 19.0708C10.0189 18.2502 9.75156 17.3375 9.69392 16.3999ZM10.4763 12.929C11.257 13.0499 12.0403 13.1449 12.8262 13.2137C12.6718 14.0002 12.5848 14.7985 12.566 15.5999H9.69392C9.75155 14.6623 10.0189 13.7495 10.4763 12.929ZM15.0899 10.1001C15.2256 9.96923 15.3817 9.86138 15.5522 9.78085C15.6921 9.71437 15.8451 9.67987 16 9.67987C16.1549 9.67987 16.3079 9.71437 16.4478 9.78085C16.7722 9.94655 17.0499 10.1909 17.2555 10.4916C17.6754 11.0984 17.9866 11.7735 18.1751 12.4869C17.4508 12.5315 16.7258 12.5542 16 12.555C15.2745 12.555 14.5495 12.5323 13.8248 12.4869C13.9291 12.1201 14.0595 11.7612 14.2148 11.413C14.4194 10.9232 14.7165 10.4774 15.0899 10.1001ZM22.3061 15.5999H19.4342C19.4155 14.7985 19.3287 14.0002 19.1746 13.2136C19.9597 13.1445 20.7427 13.0496 21.5237 12.929C21.9811 13.7495 22.2485 14.6622 22.3061 15.5999ZM13.63 18.724C13.4736 17.9586 13.3852 17.1808 13.366 16.3999H18.6341C18.6151 17.1808 18.5269 17.9586 18.3706 18.724C17.5812 18.6722 16.7911 18.6458 16 18.6447C15.2095 18.6447 14.4195 18.6711 13.63 18.724ZM18.37 13.2758C18.5264 14.0412 18.6148 14.8189 18.634 15.5999H13.3659C13.3849 14.8189 13.4731 14.0412 13.6294 13.2758C14.4188 13.3275 15.2089 13.354 16 13.355C16.7905 13.355 17.5805 13.3286 18.37 13.2758ZM19.434 16.3999H22.3061C22.2485 17.3375 21.9811 18.2502 21.5237 19.0708C20.743 18.9498 19.9597 18.8549 19.1738 18.7861C19.3282 17.9995 19.4152 17.2012 19.434 16.3999ZM21.0441 12.1926C20.3615 12.2911 19.6768 12.3691 18.9901 12.4266C18.8667 11.9671 18.7075 11.5179 18.514 11.0832C18.3374 10.6832 18.1151 10.305 17.8517 9.95599C19.1249 10.3465 20.2422 11.1293 21.0441 12.1926ZM11.5311 11.5309C12.2615 10.7999 13.16 10.2591 14.148 9.95608C14.133 9.9755 14.1176 9.99405 14.1028 10.0139C13.595 10.7449 13.2251 11.5626 13.0114 12.4267C12.3246 12.3685 11.6395 12.2905 10.9559 12.1926C11.1322 11.9591 11.3244 11.738 11.5311 11.5309ZM10.9559 19.8071C11.6385 19.7086 12.3232 19.6306 13.0099 19.5732C13.1333 20.0327 13.2925 20.4818 13.486 20.9165C13.6626 21.3165 13.8849 21.6948 14.1483 22.0438C12.8751 21.6533 11.7578 20.8705 10.9559 19.8071ZM20.4689 20.4688C19.7385 21.1999 18.84 21.7406 17.852 22.0437C17.867 22.0243 17.8824 22.0057 17.8972 21.9859C18.405 21.2549 18.7749 20.4371 18.9886 19.5731C19.6754 19.6312 20.3605 19.7092 21.0441 19.8071C20.8678 20.0406 20.6756 20.2617 20.4689 20.4688Z" fill="#012D22" stroke="#012D22" stroke-width="0.5"/>
</g>
<defs>
<clipPath id="clip0_677_3238">
<rect width="16" height="16" fill="white" transform="translate(8 8)"/>
</clipPath>
</defs>
</svg>
