<svg width="32" height="32" viewBox="0 0 32 32" fill="none" xmlns="http://www.w3.org/2000/svg">
<rect width="32" height="32" rx="10" fill="#F9FBFB"/>
<g clip-path="url(#clip0_708_4481)">
<path d="M18.7759 24H10.8096C10.5121 24 10.2658 23.7958 10.2107 23.5035C10.1556 23.2111 10.3106 22.9313 10.5877 22.823L11.5378 22.4515H10.4341C10.3047 22.4515 10.1997 22.3466 10.1997 22.2172C10.1997 22.0877 10.3047 21.9828 10.4341 21.9828H12.737L13.6205 21.6374V19.064C13.6205 18.9345 13.7255 18.8296 13.8549 18.8296H14.0893V16.4988H11.944C11.4644 16.4988 10.9945 16.3331 10.6209 16.0323C10.2473 15.7314 9.98527 15.3076 9.88302 14.839L8.60122 8.96461C8.52006 8.59259 8.75545 8.21841 9.12594 8.13053L9.43861 8.05637C10.2298 7.86873 11.0686 8.15834 11.5758 8.79423C11.6565 8.89542 11.6399 9.0429 11.5387 9.12362C11.4375 9.20428 11.29 9.18769 11.2093 9.08652C10.8148 8.59181 10.1622 8.36635 9.54681 8.51249L9.23413 8.58665C9.11062 8.61596 9.03215 8.74066 9.05921 8.86467L9.90658 12.7481H12.2378L11.5219 9.73022C11.4921 9.60428 11.5699 9.47792 11.6959 9.44805C11.8219 9.41823 11.9482 9.49608 11.978 9.622L12.7196 12.7481H16.3384C16.4678 12.7481 16.5727 12.853 16.5727 12.9825C16.5727 13.112 16.4678 13.2169 16.3384 13.2169H10.0089L10.3158 14.6232H18.9C18.7859 13.8292 18.1011 13.2169 17.2759 13.2169C17.1465 13.2169 17.0415 13.112 17.0415 12.9825C17.0415 12.853 17.1465 12.7481 17.2759 12.7481C18.4391 12.7481 19.3854 13.6944 19.3854 14.8576V15.7957C19.3854 16.0245 19.2756 16.2281 19.1059 16.3566L23.2089 20.4595C23.3417 20.5924 23.4148 20.7689 23.4148 20.9568C23.4148 21.1446 23.3417 21.3212 23.2089 21.454C23.0761 21.5868 22.8995 21.6599 22.7117 21.6599C22.5238 21.6599 22.3473 21.5868 22.2144 21.454C22.1852 21.4247 17.7695 17.0059 17.2626 16.4988H15.4957V18.8296H15.7301C15.8595 18.8296 15.9645 18.9345 15.9645 19.064V21.6373L17.3119 22.1641C17.4325 22.2112 17.492 22.3471 17.4449 22.4677C17.3977 22.5883 17.2618 22.6478 17.1412 22.6007L15.6859 22.0318H13.8991L10.7584 23.2596C10.6603 23.2979 10.6648 23.3822 10.6713 23.4166C10.6778 23.4511 10.7043 23.5312 10.8095 23.5312H18.7759C18.8811 23.5312 18.9075 23.4511 18.914 23.4167C18.9205 23.3823 18.925 23.298 18.8271 23.2598L17.9963 22.935C17.8758 22.8879 17.8162 22.7519 17.8634 22.6313C17.9105 22.5108 18.0464 22.4512 18.167 22.4984L18.9978 22.8231C19.2748 22.9315 19.4298 23.2113 19.3747 23.5035C19.3196 23.7958 19.0734 24 18.7759 24ZM14.0893 21.563H15.4956V19.2984H14.0893V21.563ZM17.9254 16.4988C18.7132 17.2871 22.5166 21.0933 22.5459 21.1225C22.5902 21.1668 22.6491 21.1912 22.7117 21.1912C22.7743 21.1912 22.8331 21.1668 22.8774 21.1225C22.9217 21.0782 22.9461 21.0194 22.9461 20.9568C22.9461 20.8942 22.9217 20.8353 22.8774 20.791C22.8774 20.791 19.0822 16.9959 18.5852 16.4988H17.9254V16.4988ZM14.5581 18.8296H15.0269V16.4988H14.5581V18.8296ZM10.4621 15.0921C10.7298 15.6519 11.3051 16.0301 11.944 16.0301H18.6823C18.8115 16.0301 18.9166 15.925 18.9166 15.7957V15.0921H10.4621Z" fill="#012D22" stroke="#012D22" stroke-width="0.3"/>
</g>
<defs>
<clipPath id="clip0_708_4481">
<rect width="16" height="16" fill="white" transform="translate(8 8)"/>
</clipPath>
</defs>
</svg>
