<svg width="32" height="32" viewBox="0 0 32 32" fill="none" xmlns="http://www.w3.org/2000/svg">
<rect width="32" height="32" rx="10" fill="#F9FBFB"/>
<g clip-path="url(#clip0_677_3227)">
<path d="M22.8765 14.9758C22.8153 13.2306 22.1085 11.5986 20.8675 10.3576C19.5668 9.05658 17.838 8.34033 16 8.34033C12.2878 8.34033 9.25452 11.2951 9.12377 14.9758C8.55727 15.2276 8.16077 15.7946 8.16077 16.4536V18.2691C8.16077 19.1606 8.88602 19.8861 9.77777 19.8861C10.3548 19.8861 10.824 19.4168 10.824 18.8398V15.8826C10.824 15.3408 10.4085 14.8991 9.88027 14.8466C10.0753 11.6398 12.7448 9.09033 16 9.09033C17.638 9.09033 19.1783 9.72883 20.3375 10.8881C21.402 11.9526 22.025 13.3401 22.1188 14.8468C21.591 14.8998 21.1763 15.3413 21.1763 15.8826V18.8396C21.1763 19.3858 21.5983 19.8303 22.1328 19.8766V20.6238C22.1328 21.4653 21.448 22.1498 20.6065 22.1498H19.4763C19.4208 21.9913 19.3338 21.8448 19.2118 21.7233C18.998 21.5086 18.713 21.3903 18.4095 21.3903H17.2445C17.0773 21.3903 16.9168 21.4258 16.7698 21.4943C16.3688 21.6786 16.1098 22.0831 16.1098 22.5248C16.1098 22.8283 16.228 23.1133 16.4423 23.3266C16.6565 23.5413 16.9415 23.6596 17.2445 23.6596H18.4095C18.8925 23.6596 19.3183 23.3473 19.477 22.8998H20.6065C21.8618 22.8998 22.8828 21.8788 22.8828 20.6238V19.7431C23.4458 19.4898 23.8393 18.9248 23.8393 18.2686V16.4531C23.8393 15.7946 23.4428 15.2276 22.8765 14.9758ZM10.0738 15.8826V18.8396C10.0738 19.0028 9.94102 19.1358 9.77752 19.1358C9.29952 19.1358 8.91052 18.7468 8.91052 18.2688V16.4533C8.91052 15.9751 9.29952 15.5863 9.77752 15.5863C9.94102 15.5863 10.0738 15.7193 10.0738 15.8826ZM18.7858 22.6053C18.7485 22.7818 18.59 22.9101 18.4093 22.9101H17.2443C17.1418 22.9101 17.0455 22.8701 16.972 22.7966C16.8995 22.7243 16.8595 22.6278 16.8595 22.5253C16.8595 22.3756 16.9473 22.2388 17.0848 22.1756C17.1338 22.1526 17.1875 22.1408 17.2443 22.1408H18.4093C18.5118 22.1408 18.608 22.1806 18.6813 22.2541C18.7538 22.3263 18.7938 22.4228 18.7938 22.5253C18.794 22.5528 18.791 22.5803 18.7858 22.6053ZM23.0893 18.2688C23.0893 18.7468 22.7003 19.1358 22.2223 19.1358C22.059 19.1358 21.926 19.0031 21.926 18.8396V15.8826C21.926 15.7193 22.0588 15.5863 22.2223 15.5863C22.7003 15.5863 23.0893 15.9753 23.0893 16.4533V18.2688Z" fill="#012D22" stroke="#012D22" stroke-width="0.5"/>
<path d="M18.4283 18.3982C19.3045 18.3982 20.0173 17.6852 20.0173 16.8092V13.5714C20.0173 13.1479 19.8518 12.7489 19.5513 12.4484C19.2508 12.1479 18.852 11.9824 18.4283 11.9824H13.5718C12.6955 11.9824 11.9828 12.6952 11.9828 13.5714V16.8092C11.9828 17.6854 12.6955 18.3982 13.5718 18.3982H13.6015V19.2372C13.6015 19.5572 13.7923 19.8412 14.0873 19.9609C14.1825 19.9992 14.2815 20.0182 14.3795 20.0182C14.5838 20.0182 14.7828 19.9372 14.9285 19.7864L16.3243 18.3982H18.4283ZM15.9055 17.7572L14.395 19.2594C14.3883 19.2664 14.3833 19.2717 14.369 19.2654C14.3518 19.2584 14.3518 19.2472 14.3518 19.2372V18.0232C14.3518 17.8162 14.184 17.6482 13.9768 17.6482H13.572C13.1093 17.6482 12.733 17.2717 12.733 16.8092V13.5714C12.733 13.1087 13.1093 12.7324 13.572 12.7324H18.4285C18.652 12.7324 18.8623 12.8199 19.0213 12.9787C19.1803 13.1377 19.2675 13.3482 19.2675 13.5714V16.8092C19.2675 17.2719 18.891 17.6482 18.4285 17.6482H16.17C16.0708 17.6482 15.9758 17.6874 15.9055 17.7572Z" fill="#012D22" stroke="#012D22" stroke-width="0.5"/>
<path d="M14.1782 14.6968C13.8732 14.6968 13.625 14.9453 13.625 15.25C13.625 15.5548 13.8735 15.8033 14.1782 15.8033C14.4835 15.8033 14.732 15.5548 14.732 15.25C14.732 14.9453 14.4837 14.6968 14.1782 14.6968Z" fill="#012D22"/>
<path d="M15.9998 14.6968C15.6948 14.6968 15.4465 14.9453 15.4465 15.25C15.4465 15.5548 15.695 15.8033 15.9998 15.8033C16.3053 15.8033 16.5535 15.5548 16.5535 15.25C16.5535 14.9453 16.3053 14.6968 15.9998 14.6968Z" fill="#012D22"/>
<path d="M17.8213 14.6968C17.5163 14.6968 17.2681 14.9453 17.2681 15.25C17.2681 15.5548 17.5166 15.8033 17.8213 15.8033C18.1266 15.8033 18.3751 15.5548 18.3751 15.25C18.3751 14.9453 18.1266 14.6968 17.8213 14.6968Z" fill="#012D22"/>
</g>
<defs>
<clipPath id="clip0_677_3227">
<rect width="18" height="16" fill="white" transform="translate(7 8)"/>
</clipPath>
</defs>
</svg>
