<svg width="25" height="25" viewBox="0 0 25 25" fill="none" xmlns="http://www.w3.org/2000/svg">
    <path d="M11.185 14.6333L16.0311 9.78711M20.9885 6.82959L16.8979 20.1242C16.5313 21.3156 16.3478 21.9116 16.0316 22.1092C15.7574 22.2805 15.4178 22.3092 15.1191 22.1852C14.7747 22.0423 14.4952 21.4842 13.9375 20.3689L11.3466 15.187C11.2581 15.01 11.2138 14.9219 11.1547 14.8452C11.1022 14.7772 11.0417 14.7159 10.9736 14.6634C10.8987 14.6056 10.8121 14.5623 10.643 14.4778L5.44912 11.8809C4.33381 11.3232 3.77611 11.0441 3.6332 10.6997C3.50926 10.401 3.53753 10.0611 3.70889 9.78689C3.90647 9.47066 4.50243 9.28694 5.69424 8.92023L18.9888 4.82959C19.9258 4.5413 20.3945 4.39726 20.7109 4.51345C20.9866 4.61465 21.2039 4.83176 21.3051 5.10742C21.4212 5.42375 21.2771 5.89218 20.9891 6.82821L20.9885 6.82959Z" stroke="white" stroke-width="2" stroke-linecap="round" stroke-linejoin="round"/>
</svg>
