<svg width="32" height="32" viewBox="0 0 32 32" fill="none" xmlns="http://www.w3.org/2000/svg">
<rect width="32" height="32" rx="16" fill="#F5F5F5"/>
<mask id="mask0_743_3700" style="mask-type:luminance" maskUnits="userSpaceOnUse" x="4" y="4" width="24" height="24">
<path d="M4 4H28V28H4V4Z" fill="white"/>
</mask>
<g mask="url(#mask0_743_3700)">
<path d="M22.068 25.0692H24.3259C24.7136 25.0692 25.0278 24.755 25.0278 24.3673V9.78881L21.231 5.99207H9.32353C8.93583 5.99207 8.62158 6.30637 8.62158 6.69398V8.59584" stroke="#012D22" stroke-miterlimit="10" stroke-linecap="round" stroke-linejoin="round"/>
<path d="M8.62158 10.2324V24.3673C8.62158 24.7549 8.93583 25.0692 9.32354 25.0692H11.6088" stroke="#012D22" stroke-miterlimit="10" stroke-linecap="round" stroke-linejoin="round"/>
<path d="M8.62156 23.4287H7.67412C7.28646 23.4287 6.97217 23.1145 6.97217 22.7268V5.05348C6.97217 4.66587 7.28646 4.35157 7.67412 4.35157H22.4141C22.8091 4.35157 23.1294 4.67182 23.1294 5.06679V7.89049" stroke="#012D22" stroke-miterlimit="10" stroke-linecap="round" stroke-linejoin="round"/>
<path d="M21.231 5.99213V9.78816L25.0278 9.78882" stroke="#012D22" stroke-miterlimit="10" stroke-linejoin="round"/>
<path d="M12.6284 12.576H21.0388" stroke="#012D22" stroke-miterlimit="10" stroke-linecap="round" stroke-linejoin="round"/>
<path d="M12.6284 14.6495H21.0388" stroke="#012D22" stroke-miterlimit="10" stroke-linecap="round" stroke-linejoin="round"/>
<path d="M19.377 16.7642H21.0385" stroke="#012D22" stroke-miterlimit="10" stroke-linecap="round" stroke-linejoin="round"/>
<path d="M12.6284 16.7642H17.7227" stroke="#012D22" stroke-miterlimit="10" stroke-linecap="round" stroke-linejoin="round"/>
<path d="M16.8335 25.7084V21.5078" stroke="#012D22" stroke-miterlimit="10" stroke-linecap="round" stroke-linejoin="round"/>
<path d="M15.2959 22.9982L16.8333 21.4609L18.3707 22.9982" stroke="#012D22" stroke-miterlimit="10" stroke-linecap="round" stroke-linejoin="round"/>
<path d="M20.8976 23.5847C20.8976 21.3402 19.0781 19.5208 16.8335 19.5208C14.589 19.5208 12.7695 21.3402 12.7695 23.5847C12.7695 25.829 14.589 27.6484 16.8335 27.6484C19.0781 27.6484 20.8976 25.829 20.8976 23.5847Z" stroke="#012D22" stroke-miterlimit="10" stroke-linecap="round" stroke-linejoin="round"/>
</g>
</svg>
