<svg width="20" height="16" viewBox="0 0 20 16" fill="none" xmlns="http://www.w3.org/2000/svg">
<path d="M1.6665 14.6667H3.33317M3.33317 14.6667H8.33317M3.33317 14.6667V7.54352C3.33317 7.09824 3.33317 6.87548 3.38731 6.66828C3.43529 6.48466 3.51466 6.31089 3.62126 6.15387C3.74154 5.97668 3.9087 5.82974 4.24382 5.53652L8.24514 2.03537C8.86637 1.49178 9.17701 1.21997 9.52685 1.11652C9.83535 1.02529 10.1642 1.02529 10.4727 1.11652C10.8228 1.22005 11.1338 1.49212 11.756 2.03652L15.756 5.53652C16.0911 5.82974 16.2584 5.97668 16.3786 6.15387C16.4852 6.31089 16.564 6.48466 16.612 6.66828C16.6661 6.87548 16.6665 7.09824 16.6665 7.54352V14.6667M8.33317 14.6667H11.6665M8.33317 14.6667V11.3334C8.33317 10.4129 9.07936 9.66673 9.99984 9.66673C10.9203 9.66673 11.6665 10.4129 11.6665 11.3334V14.6667M11.6665 14.6667H16.6665M16.6665 14.6667H18.3332" stroke="#1BD9BF" stroke-width="1.5" stroke-linecap="round" stroke-linejoin="round"/>
</svg>
