<svg width="24" height="24" viewBox="0 0 24 24" fill="none" xmlns="http://www.w3.org/2000/svg">
<path d="M18.0606 23.9953C16.1996 23.9953 13.9215 23.1422 11.4137 21.4547C6.29024 18.0188 0.496491 11.1422 0.0324286 6.37971C-0.112884 4.88909 0.262116 3.6844 1.14337 2.80315L3.73087 0.210962C4.00743 -0.0656006 4.45274 -0.0656006 4.7293 0.210962L10.0262 5.50784C10.3027 5.7844 10.3027 6.22971 10.0262 6.50627L10.0215 6.51096C9.56212 6.97034 8.38087 8.1469 7.3918 9.13596C7.13868 9.38909 7.11055 9.78752 7.33555 10.0781C8.11368 11.1141 9.45899 12.7547 10.6824 13.9781C11.6434 14.9391 12.8996 15.8531 14.0059 16.636C14.2684 16.8235 14.6527 16.7813 14.8965 16.5328C15.6137 15.811 16.5606 14.8594 17.4981 13.9219L17.5027 13.9172C17.7793 13.6406 18.2246 13.6406 18.5012 13.9172L23.7981 19.2141C24.0746 19.4906 24.0746 19.936 23.7981 20.2125L21.2434 22.7672C20.4184 23.5875 19.3402 23.9953 18.0606 23.9953ZM4.51837 2.01565C4.35899 1.85627 4.10118 1.85627 3.9418 2.01565L2.14649 3.81096C1.5793 4.37815 1.34493 5.19377 1.44805 6.24377C1.86524 10.5375 7.45274 17.086 12.2059 20.2735C14.4606 21.7875 16.4902 22.5656 18.0465 22.5656C18.9512 22.5656 19.6965 22.3031 20.2356 21.7641L21.9934 20.0063C22.1527 19.8469 22.1527 19.5891 21.9934 19.4297L18.2902 15.7266C18.1309 15.5672 17.8731 15.5672 17.7137 15.7266C17.0527 16.3875 16.4199 17.025 15.909 17.5406C15.1684 18.286 14.0246 18.3938 13.1856 17.7985C12.0324 16.9828 10.7199 16.0266 9.6793 14.986C8.4043 13.711 7.01212 12.0094 6.20587 10.936C5.8918 10.5235 5.7418 10.0125 5.77462 9.4969C5.80743 8.97659 6.02774 8.49377 6.39805 8.12346C7.00743 7.51409 7.6918 6.8344 8.23087 6.29534C8.39024 6.13596 8.39024 5.87815 8.23087 5.71877L4.51837 2.01565Z" fill="white"/>
</svg>
