<svg width="24" height="26" viewBox="0 0 24 26" fill="none" xmlns="http://www.w3.org/2000/svg">
<path fill-rule="evenodd" clip-rule="evenodd" d="M11.4428 3.0271H11.5011C12.031 3.0271 12.5317 3.0271 13.0037 3.02942C13.4179 3.03146 13.752 3.3689 13.75 3.78311C13.748 4.19732 13.4105 4.53145 12.9963 4.52941C12.5284 4.5271 12.0311 4.5271 11.5 4.5271C9.23963 4.5271 7.6198 4.52869 6.3879 4.69432C5.17757 4.85704 4.45462 5.16563 3.92157 5.69867C3.38853 6.23172 3.07994 6.95467 2.91722 8.16499C2.75159 9.39689 2.75 11.0167 2.75 13.2771C2.75 15.5375 2.75159 17.1573 2.91722 18.3892C3.07994 19.5995 3.38853 20.3225 3.92157 20.8555C4.45462 21.3886 5.17757 21.6972 6.3879 21.8599C7.6198 22.0255 9.23963 22.0271 11.5 22.0271C13.7604 22.0271 15.3802 22.0255 16.6121 21.8599C17.8224 21.6972 18.5454 21.3886 19.0784 20.8555C19.5916 20.3423 19.8964 19.6536 20.0636 18.5247C20.2341 17.374 20.249 15.8669 20.2499 13.7768C20.2501 13.3625 20.5861 13.0269 21.0003 13.0271C21.4145 13.0273 21.7501 13.3632 21.7499 13.7774C21.749 15.8343 21.7374 17.4623 21.5474 18.7446C21.3542 20.0488 20.9644 21.0909 20.1391 21.9162C19.2809 22.7744 18.1886 23.1614 16.812 23.3465C15.4686 23.5271 13.7479 23.5271 11.5572 23.5271H11.4428C9.25212 23.5271 7.53144 23.5271 6.18802 23.3465C4.81137 23.1614 3.71911 22.7744 2.86091 21.9162C2.00271 21.058 1.61568 19.9657 1.43059 18.5891C1.24998 17.2457 1.24999 15.525 1.25 13.3343V13.2199C1.24999 11.0292 1.24998 9.30854 1.43059 7.96512C1.61568 6.58847 2.00271 5.49621 2.86091 4.63801C3.71911 3.77981 4.81137 3.39278 6.18802 3.20769C7.53144 3.02708 9.25212 3.02709 11.4428 3.0271Z" fill="#012D22"/>
<path fill-rule="evenodd" clip-rule="evenodd" d="M10.718 17.7091C8.79601 16.2527 6.37523 15.477 3.88745 15.5296L3.86973 15.5298C3.27951 15.5283 2.69035 15.5701 2.10769 15.6548L1.89209 14.1703C2.54455 14.0756 3.20406 14.0285 3.86463 14.0298C6.67764 13.9723 9.42736 14.8491 11.6239 16.5135C13.6642 18.0594 15.1068 20.1943 15.726 22.5894L14.2738 22.9648C13.7424 20.9096 12.4996 19.059 10.718 17.7091Z" fill="#012D22"/>
<path fill-rule="evenodd" clip-rule="evenodd" d="M17.3871 16.0272C15.3411 16.0195 13.3493 16.7739 11.5386 18.1856L12.461 19.3686C14.0528 18.1275 15.7263 17.5206 17.3831 17.5272H17.3868C18.482 17.526 19.5821 17.7959 20.6609 18.3424L21.3387 17.0042C20.0672 16.3603 18.7364 16.0261 17.3871 16.0272Z" fill="#012D22"/>
<path fill-rule="evenodd" clip-rule="evenodd" d="M18.0893 5.1364C17.8971 5.38114 17.6949 5.63825 17.5378 5.79984C17.2491 6.09687 16.7743 6.10361 16.4773 5.81491C16.1802 5.52621 16.1735 5.05138 16.4622 4.75436C16.5509 4.6631 16.6965 4.48129 16.9097 4.20986C16.9251 4.1902 16.9408 4.17022 16.9568 4.14994C17.1468 3.90779 17.3698 3.62373 17.5995 3.35261C17.8457 3.06205 18.1213 2.76026 18.3968 2.52564C18.5348 2.40806 18.6904 2.29209 18.8578 2.20251C19.0193 2.11612 19.2417 2.0271 19.5 2.0271C19.7583 2.0271 19.9807 2.11612 20.1422 2.20251C20.3096 2.29209 20.4652 2.40806 20.6032 2.52564C20.8787 2.76026 21.1543 3.06205 21.4005 3.35261C21.6302 3.62373 21.8532 3.9078 22.0433 4.14995C22.0592 4.17022 22.0749 4.19021 22.0903 4.20986C22.3035 4.48129 22.4491 4.6631 22.5378 4.75436C22.8265 5.05138 22.8198 5.52621 22.5227 5.81491C22.2257 6.10361 21.7509 6.09687 21.4622 5.79984C21.3051 5.63825 21.1029 5.38114 20.9107 5.1364C20.8958 5.11753 20.8809 5.09854 20.866 5.07945C20.673 4.83373 20.4667 4.57096 20.2561 4.32232C20.254 4.31993 20.252 4.31755 20.25 4.31517V10.7771C20.25 11.1913 19.9142 11.5271 19.5 11.5271C19.0858 11.5271 18.75 11.1913 18.75 10.7771V4.31517C18.748 4.31755 18.746 4.31993 18.7439 4.32232C18.5333 4.57096 18.327 4.83373 18.1341 5.07945C18.1191 5.09855 18.1042 5.11753 18.0893 5.1364Z" fill="#012D22"/>
</svg>
