<svg width="32" height="32" viewBox="0 0 32 32" fill="none" xmlns="http://www.w3.org/2000/svg">
<rect y="0.000244141" width="32" height="32" rx="10" fill="#F9FBFB"/>
<g clip-path="url(#clip0_708_4678)">
<path d="M23.502 8.48812L23.3847 8.47603C22.9435 8.43059 22.5034 8.57115 22.1702 8.86393L13.4979 16.4849L15.5145 18.5015L23.1275 9.81971C23.4195 9.48665 23.5596 9.04703 23.5142 8.60643L23.502 8.48812Z" stroke="#012D22" stroke-width="1.2" stroke-miterlimit="10"/>
<path d="M11.2491 18.2532C10.6131 18.8892 9.58184 18.8892 8.94577 18.2532C8.30974 17.6172 8.30974 16.586 8.94577 15.9499C9.58184 15.3139 10.6131 15.3139 11.2491 15.9499C11.8851 16.586 11.8851 17.6172 11.2491 18.2532Z" stroke="#012D22" stroke-width="1.2" stroke-miterlimit="10"/>
<path d="M16.0497 23.0537C15.4137 23.6898 14.3825 23.6898 13.7464 23.0537C13.1104 22.4177 13.1104 21.3865 13.7464 20.7504C14.3825 20.1144 15.4137 20.1144 16.0497 20.7504C16.6858 21.3865 16.6858 22.4177 16.0497 23.0537Z" stroke="#012D22" stroke-width="1.2" stroke-miterlimit="10"/>
<path d="M17.7312 15.9736L22.2024 20.4448L21.5859 21.0612C21.0569 21.5903 20.1992 21.5903 19.6702 21.0612L16.2601 17.6512" stroke="#012D22" stroke-width="1.2" stroke-miterlimit="10"/>
<path d="M14.3475 15.7385L10.9338 12.3248C10.4047 11.7958 10.4047 10.9381 10.9338 10.409L11.5502 9.79259L16.0234 14.2658" stroke="#012D22" stroke-width="1.2" stroke-miterlimit="10"/>
<path d="M11.5499 9.79272L13.0101 8.33257" stroke="#012D22" stroke-width="1.2" stroke-miterlimit="10"/>
<path d="M13.0718 11.3145L14.5319 9.8543" stroke="#012D22" stroke-width="1.2" stroke-miterlimit="10"/>
<path d="M14.5935 12.8362L16.0537 11.376" stroke="#012D22" stroke-width="1.2" stroke-miterlimit="10"/>
<path d="M19.1587 17.4016L20.6188 15.9415" stroke="#012D22" stroke-width="1.2" stroke-miterlimit="10"/>
<path d="M20.6804 18.9233L22.1406 17.4632" stroke="#012D22" stroke-width="1.2" stroke-miterlimit="10"/>
<path d="M22.2021 20.4451L23.6623 18.9849" stroke="#012D22" stroke-width="1.2" stroke-miterlimit="10"/>
<path d="M15.1648 20.2957L15.5145 18.5015" stroke="#012D22" stroke-width="1.2" stroke-miterlimit="10"/>
<path d="M11.7041 16.8347L13.4979 16.485" stroke="#012D22" stroke-width="1.2" stroke-miterlimit="10"/>
</g>
<defs>
<clipPath id="clip0_708_4678">
<rect width="18" height="18" fill="white" transform="translate(7 7)"/>
</clipPath>
</defs>
</svg>
