<svg width="32" height="32" viewBox="0 0 32 32" fill="none" xmlns="http://www.w3.org/2000/svg">
<rect y="0.000244141" width="32" height="32" rx="10" fill="#F9FBFB"/>
<path d="M10 18.0003V19.2002C10 19.9469 10 20.32 10.1453 20.6052C10.2732 20.8561 10.477 21.0605 10.7279 21.1883C11.0128 21.3335 11.386 21.3335 12.1313 21.3335H22.0001M10 18.0003V11.3335M10 18.0003L12.5689 15.8595L12.5711 15.8578C13.0358 15.4706 13.2686 15.2766 13.521 15.1978C13.8192 15.1047 14.1405 15.1194 14.429 15.2391C14.6737 15.3406 14.8882 15.5551 15.3172 15.9841L15.3215 15.9884C15.7571 16.4241 15.9756 16.6425 16.2241 16.7437C16.5182 16.8635 16.8457 16.8739 17.1471 16.7739C17.4027 16.6891 17.6361 16.4852 18.1029 16.0768L22 12.6668" stroke="#012D22" stroke-width="1.5" stroke-linecap="round" stroke-linejoin="round"/>
</svg>
