<svg width="500" height="150" viewBox="0 0 193 45" fill="none" xmlns="http://www.w3.org/2000/svg">
    <path d="M52.8867 37.5C52.8867 37.9125 52.7736 38.325 52.5852 38.7C52.359 39.075 52.0951 39.375 51.7559 39.5625C51.4166 39.7875 51.002 39.9 50.5873 39.9H46.29V30.675H50.3988C50.8512 30.675 51.2281 30.7875 51.5297 31.0125C51.8312 31.2375 52.0951 31.5375 52.2459 31.9125C52.3967 32.2875 52.5098 32.6625 52.5098 33.0375C52.5098 33.4875 52.3967 33.9375 52.1328 34.3125C51.9066 34.6875 51.5674 34.9875 51.1527 35.175C51.6805 35.325 52.0951 35.625 52.3967 36.075C52.7359 36.4875 52.8867 36.975 52.8867 37.5ZM46.5539 30.9375V35.1375H50.3234C50.7004 35.1375 51.0396 35.025 51.3412 34.8375C51.6428 34.6125 51.8689 34.35 52.0197 34.05C52.1705 33.7125 52.2836 33.4125 52.2836 33.075C52.2836 32.7 52.2082 32.3625 52.0574 32.025C51.9066 31.725 51.6805 31.4625 51.4166 31.275C51.1527 31.0875 50.8135 30.975 50.4365 30.975H46.5539V30.9375ZM52.6229 37.5C52.6229 37.125 52.5475 36.7875 52.359 36.45C52.1705 36.1125 51.9443 35.85 51.6428 35.6625C51.3412 35.475 51.002 35.3625 50.625 35.3625H46.4785V39.6375H50.5119C50.8889 39.6375 51.2281 39.525 51.5674 39.3375C51.8689 39.1125 52.1328 38.85 52.3213 38.55C52.5475 38.2125 52.6229 37.875 52.6229 37.5Z" fill="#012D22"/>
    <path d="M66.8342 39.6375V39.9H60.7275V30.675H66.7211V30.9375H60.9914V35.0625H66.0049V35.325H60.9914V39.6375H66.8342Z" fill="#012D22"/>
    <path d="M77.6521 30.675H77.8783L81.9117 39.9H81.6102L80.1777 36.6H75.315L73.8826 39.9H73.5811L77.6521 30.675ZM80.1023 36.3375L77.8029 31.05L75.4658 36.3375H80.1023Z" fill="#012D22"/>
    <path d="M93.0318 39.975C92.3156 39.975 91.6748 39.825 91.1848 39.5625C90.6947 39.3 90.3178 38.925 90.0162 38.475C89.7147 38.025 89.5262 37.5375 89.4131 36.975C89.3 36.4125 89.2246 35.85 89.2246 35.2875V30.675H89.4885V35.2875C89.4885 35.85 89.5262 36.375 89.677 36.9C89.79 37.425 89.9785 37.9125 90.2424 38.325C90.5062 38.7375 90.8832 39.075 91.3355 39.3375C91.7879 39.6 92.3533 39.7125 93.0318 39.7125C93.748 39.7125 94.3135 39.6 94.7658 39.3375C95.2182 39.075 95.5951 38.7375 95.859 38.325C96.1229 37.9125 96.3113 37.425 96.4244 36.9C96.5375 36.375 96.5752 35.85 96.5752 35.325V30.675H96.8391V35.2875C96.8391 35.8875 96.7637 36.4875 96.6506 37.05C96.5375 37.6125 96.3113 38.1 96.0098 38.55C95.7082 39 95.3313 39.3375 94.8412 39.6C94.3135 39.825 93.748 39.975 93.0318 39.975Z" fill="#012D22"/>
    <path d="M111.428 30.9375H107.884V39.9H107.621V30.9375H104.077V30.675H111.465V30.9375H111.428Z" fill="#012D22"/>
    <path d="M118.137 30.675L121.718 36.0375L125.299 30.675H125.601L121.831 36.3375V39.9H121.567V36.3L117.798 30.675H118.137Z" fill="#012D22"/>
    <path d="M56.8822 17.6625C56.8822 19.0125 56.9576 20.625 57.0707 22.5C52.9996 22.4625 48.9285 22.4625 44.8574 22.5V22.275C45.7998 22.05 46.4029 21.8625 46.6668 21.6C46.9307 21.375 47.0814 20.9625 47.0814 20.3625V7.9875C47.0814 7.3875 46.9307 7.0125 46.6668 6.75C46.4029 6.525 45.7998 6.3 44.8574 6.075V5.85C48.8908 5.8875 52.9619 5.8875 56.9953 5.85C56.8822 7.5 56.8068 8.925 56.8068 10.125H56.5807C56.1283 8.8125 55.5252 7.9125 54.7336 7.4625C53.9797 7.0125 52.6604 6.7875 50.7756 6.7875H49.607V13.2H51.1525C52.1703 13.2 52.9242 13.05 53.3766 12.7125C53.8289 12.375 54.2813 11.7375 54.6959 10.8H54.8844C54.7336 12.675 54.7336 14.5875 54.8844 16.5H54.6959C54.2813 15.5625 53.8666 14.925 53.3766 14.5875C52.8865 14.25 52.1703 14.1 51.1148 14.1H49.5693V21.4875H50.8133C52.6227 21.4875 53.942 21.225 54.6959 20.7C55.4875 20.175 56.1283 19.125 56.6184 17.55H56.8822V17.6625Z" fill="#012D22"/>
    <path d="M75.0514 22.725L68.417 9.225H68.2285L67.8139 19.6125C67.7762 20.4375 67.9646 21.0375 68.3793 21.4125C68.7939 21.7875 69.5479 22.0875 70.6033 22.3125V22.5C68.417 22.4625 66.2307 22.4625 64.082 22.5V22.275C64.9867 22.05 65.6275 21.75 66.0045 21.375C66.3814 21 66.5699 20.4 66.6453 19.575L67.2107 9C67.2484 8.1375 67.0977 7.4625 66.7207 7.05C66.3438 6.6375 65.6652 6.3375 64.6475 6.1125V5.8875C66.3061 5.925 68.0023 5.925 69.7363 5.8875L75.843 18.2625H76.0314L81.2711 5.8875C82.8543 5.925 84.4375 5.925 86.0584 5.8875V6.1125C85.2291 6.3 84.6637 6.4875 84.3621 6.75C84.0229 7.0125 83.8721 7.425 83.9098 7.9875C84.0982 12.825 84.3244 16.9875 84.5883 20.4375C84.626 21 84.7768 21.4125 85.0783 21.6375C85.3799 21.8625 85.9453 22.0875 86.8123 22.275V22.5C84.4752 22.4625 82.1381 22.4625 79.801 22.5V22.275C80.7057 22.0875 81.3088 21.8625 81.6104 21.6C81.9119 21.3375 82.025 20.925 82.025 20.3625C81.7611 15.8625 81.5727 12.0375 81.4596 8.8125H81.2711L75.3529 22.6875H75.0514V22.725Z" fill="#012D22"/>
    <path d="M105.509 17.6625C105.509 19.0125 105.585 20.625 105.698 22.5C101.627 22.4625 97.5555 22.4625 93.4844 22.5V22.275C94.4268 22.05 95.0299 21.8625 95.2938 21.6C95.5576 21.375 95.7084 20.9625 95.7084 20.3625V7.9875C95.7084 7.3875 95.5576 7.0125 95.2938 6.75C95.0299 6.525 94.4268 6.3 93.4844 6.075V5.85C97.5178 5.8875 101.589 5.8875 105.622 5.85C105.509 7.5 105.434 8.925 105.434 10.125H105.208C104.755 8.8125 104.152 7.9125 103.361 7.4625C102.607 7.0125 101.287 6.7875 99.4025 6.7875H98.234V13.2H99.7795C100.797 13.2 101.551 13.05 102.004 12.7125C102.456 12.375 102.908 11.7375 103.323 10.8H103.511C103.361 12.675 103.361 14.5875 103.511 16.5H103.323C102.908 15.5625 102.494 14.925 102.004 14.5875C101.513 14.25 100.797 14.1 99.7418 14.1H98.1963V21.4875H99.4402C101.25 21.4875 102.569 21.225 103.323 20.7C104.114 20.175 104.755 19.125 105.245 17.55H105.509V17.6625Z" fill="#012D22"/>
    <path d="M136.005 27.225C136.721 27.225 137.626 27.1125 138.719 26.85V27.075C137.061 28.05 135.44 28.5375 133.781 28.5375C132.462 28.5375 131.218 28.2375 130.012 27.675C128.805 27.1125 127.674 26.25 126.581 25.1625C125.488 24.0375 124.47 22.8375 123.566 21.525C122.661 20.2125 121.681 18.6375 120.663 16.8375C120.286 16.1625 119.985 15.675 119.796 15.4125H119.645C119.042 15.4125 118.477 15.3 117.949 15.1125V20.4375C117.949 21.0375 118.1 21.4125 118.364 21.675C118.665 21.9 119.306 22.125 120.324 22.35V22.5C117.911 22.4625 115.537 22.4625 113.124 22.5V22.275C114.066 22.05 114.67 21.8625 114.933 21.6C115.197 21.375 115.348 20.9625 115.348 20.3625V7.9875C115.348 7.3875 115.197 7.0125 114.933 6.75C114.67 6.525 114.066 6.3 113.124 6.075V5.85C114.933 5.8875 116.894 5.8875 119.004 5.85C121.115 5.775 122.774 6.15 123.98 7.0125C125.149 7.8375 125.752 8.9625 125.752 10.35C125.752 11.325 125.45 12.225 124.81 13.05C124.169 13.875 123.302 14.475 122.246 14.8875C122.51 15.3 122.736 15.6 122.849 15.825C125.375 20.0625 127.599 23.025 129.635 24.675C131.632 26.4 133.781 27.225 136.005 27.225ZM118.778 6.825C118.439 6.825 118.175 6.8625 117.987 6.9V14.1375C118.514 14.3625 119.042 14.4375 119.532 14.4375C120.475 14.4375 121.304 14.0625 121.982 13.35C122.661 12.6375 123 11.7 123 10.575C123 9.3375 122.623 8.4375 121.907 7.7625C121.191 7.1625 120.135 6.825 118.778 6.825Z" fill="#012D22"/>
    <path d="M149.123 20.3625C149.424 21 149.726 21.45 150.028 21.7125C150.329 21.975 150.819 22.1625 151.422 22.275V22.5C149.085 22.4625 146.71 22.4625 144.336 22.5V22.275C144.373 22.275 144.449 22.2375 144.562 22.2375C144.976 22.125 145.316 22.05 145.504 21.975C145.693 21.9 145.881 21.7875 146.07 21.6375C146.258 21.4875 146.333 21.3 146.333 21.1125C146.333 20.8875 146.258 20.6625 146.145 20.4L144.713 17.1C143.695 17.625 142.639 17.8875 141.584 17.8875C140.528 17.8875 139.511 17.6625 138.493 17.175L137.475 19.6125C137.287 20.025 137.211 20.4 137.211 20.7375C137.211 21.5625 137.927 22.0875 139.322 22.35V22.5C137.4 22.4625 135.477 22.4625 133.555 22.5V22.275C134.233 22.05 134.799 21.75 135.176 21.375C135.59 21 135.967 20.3625 136.306 19.4625L142.074 5.625H142.3L149.123 20.3625ZM138.832 16.35C139.774 16.7625 140.679 16.9875 141.584 16.9875C142.526 16.9875 143.469 16.7625 144.373 16.35L141.659 10.0125H141.471L138.832 16.35Z" fill="#012D22"/>
    <path d="M157.755 22.5V22.275C158.697 22.05 159.3 21.8625 159.564 21.6C159.828 21.375 159.979 20.9625 159.979 20.3625V7.9875C159.979 7.3875 159.828 7.0125 159.564 6.75C159.3 6.525 158.697 6.3 157.755 6.075V5.85C160.243 5.8875 162.731 5.8875 165.256 5.85V6.075C164.088 6.3 163.334 6.4875 163.032 6.7125C162.731 6.9375 162.58 7.35 162.58 7.95V21.525H163.711C165.256 21.525 166.425 21.225 167.179 20.625C167.933 20.025 168.573 18.9 169.063 17.2875H169.29C169.29 18.6375 169.327 20.3625 169.44 22.4625C165.482 22.4625 161.638 22.4625 157.755 22.5Z" fill="#012D22"/>
    <path d="M182.559 5.925C185.838 5.85 188.402 6.4875 190.249 7.8375C192.096 9.1875 193 11.1375 193 13.6875C193 16.425 192.171 18.6 190.475 20.2125C188.779 21.825 186.517 22.575 183.614 22.5C181.164 22.4625 178.714 22.4625 176.264 22.5V22.275C177.168 22.05 177.771 21.8625 178.035 21.6C178.299 21.375 178.45 20.9625 178.45 20.3625V7.9875C178.45 7.3875 178.337 6.975 178.073 6.75C177.809 6.525 177.206 6.3 176.301 6.1125V5.8875C178.224 5.9625 180.297 5.9625 182.559 5.925ZM183.84 21.5625C185.801 21.5625 187.308 20.925 188.402 19.6125C189.495 18.3 190.06 16.5375 190.06 14.25C190.06 11.8125 189.419 9.975 188.1 8.7C186.818 7.4625 184.934 6.825 182.559 6.825C181.956 6.825 181.466 6.8625 181.051 6.9V21.45C181.692 21.525 182.634 21.5625 183.84 21.5625Z" fill="#012D22"/>
    <mask id="mask0_2063_801" style="mask-type:luminance" maskUnits="userSpaceOnUse" x="0" y="1" width="37" height="43">
        <path d="M21.524 8.1C21.524 8.55 21.2979 8.8875 20.8078 8.8875H5.23965V9.075C6.29512 9.45 7.1998 9.7875 7.1998 11.025V33.975C7.1998 35.25 6.29512 35.55 5.23965 35.9625V36.15H20.8078C21.2979 36.15 21.524 36.45 21.524 36.9375H21.7125L23.5219 29.8875H23.3334C20.9209 34.3125 18.5461 35.3625 16.1713 35.3625H9.91387V9.6375H16.1713C18.5461 9.6375 20.9209 10.725 23.3334 15.15H23.5219L21.7125 8.1H21.524ZM0 1.5V31.3125L1.47012 29.85V2.6625H16.9629C26.0475 2.6625 30.3447 7.3875 30.3447 12.9375C30.3447 16.9875 28.0076 19.9125 24.8412 21.4875C22.4664 22.575 18.9984 22.65 16.1713 22.5V23.325C20.5063 23.6625 26.3867 24.375 28.1584 25.875C30.6086 27.4125 31.9279 30 31.9279 33.2625C31.9279 39.1125 27.7061 42.3 21.4109 42.3H6.48359L5.27734 43.5H21.4109C30.4201 43.5 36.4891 39.825 36.4891 33.375C36.4891 27.9 32.1541 24.3 26.4244 23.6625C31.0986 22.2375 34.9059 18.4875 34.9059 12.9C34.9436 6.15 29.327 1.5 19.3377 1.5H0Z" fill="white"/>
    </mask>
    <g mask="url(#mask0_2063_801)">
        <path d="M9.12227 59.2125L-18.2822 12L27.3668 -14.2125L54.7713 33L9.12227 59.2125Z" fill="url(#paint0_linear_2063_801)"/>
    </g>
    <defs>
        <linearGradient id="paint0_linear_2063_801" x1="29.7895" y1="42.3843" x2="4.75835" y2="-1.19683" gradientUnits="userSpaceOnUse">
            <stop stop-color="#1BB4BD"/>
            <stop offset="0.2877" stop-color="#69DDCF"/>
            <stop offset="0.359" stop-color="#72EAE1"/>
            <stop offset="0.4672" stop-color="#7CF9F7"/>
            <stop offset="0.5371" stop-color="#80FFFF"/>
            <stop offset="0.7595" stop-color="#1BD7BD"/>
            <stop offset="1" stop-color="#1BB4BD"/>
        </linearGradient>
    </defs>
</svg>
