<svg width="35" height="35" viewBox="0 0 35 35" fill="none" xmlns="http://www.w3.org/2000/svg">
<rect x="0.5" y="0.5" width="34" height="34" rx="17" stroke="#012D22"/>
<path d="M10.8333 12.5L15.923 16.3436L15.9247 16.345C16.4899 16.7594 16.7726 16.9668 17.0823 17.0469C17.356 17.1176 17.6438 17.1176 17.9175 17.0469C18.2274 16.9667 18.511 16.7587 19.0771 16.3436C19.0771 16.3436 22.3417 13.8383 24.1667 12.5M10 20.6668V14.3335C10 13.4001 10 12.933 10.1817 12.5765C10.3414 12.2629 10.5962 12.0081 10.9098 11.8483C11.2664 11.6667 11.7334 11.6667 12.6668 11.6667H22.3335C23.2669 11.6667 23.733 11.6667 24.0895 11.8483C24.4031 12.0081 24.6587 12.2629 24.8185 12.5765C25 12.9327 25 13.3992 25 14.3308V20.6697C25 21.6012 25 22.0671 24.8185 22.4232C24.6587 22.7368 24.4031 22.9921 24.0895 23.1519C23.7333 23.3333 23.2675 23.3333 22.3359 23.3333H12.6641C11.7325 23.3333 11.266 23.3333 10.9098 23.1519C10.5962 22.9921 10.3414 22.7368 10.1817 22.4232C10 22.0667 10 21.6003 10 20.6668Z" stroke="#0D0D0D" stroke-width="1.5" stroke-linecap="round" stroke-linejoin="round"/>
</svg>
