<svg width="35" height="35" viewBox="0 0 35 35" fill="none" xmlns="http://www.w3.org/2000/svg">
<rect x="0.5" y="0.5" width="34" height="34" rx="17" stroke="#012D22"/>
<path fill-rule="evenodd" clip-rule="evenodd" d="M22.6688 11.55C21.1647 9.97871 19.1645 9.113 17.0334 9.11209C12.6424 9.11209 9.06852 12.841 9.06681 17.4244C9.0662 18.8895 9.43304 20.3196 10.1302 21.5803L9 25.8879L13.2232 24.7319C14.3868 25.3942 15.6969 25.7433 17.0302 25.7438H17.0335C17.0332 25.7438 17.0337 25.7438 17.0335 25.7438C21.424 25.7438 24.9982 22.0145 25 17.431C25.0008 15.2098 24.1729 13.1212 22.6688 11.55ZM17.0334 24.3398H17.0307C15.8426 24.3394 14.6773 24.0062 13.6606 23.3768L13.4189 23.227L10.9128 23.913L11.5817 21.3633L11.4243 21.1019C10.7615 20.0018 10.4114 18.7304 10.4119 17.4248C10.4133 13.6153 13.3838 10.5161 17.0361 10.5161C18.8047 10.5167 20.4672 11.2363 21.7174 12.5423C22.9675 13.8483 23.6556 15.5843 23.6549 17.4304C23.6534 21.2402 20.683 24.3398 17.0334 24.3398Z" fill="#012D22"/>
<path fill-rule="evenodd" clip-rule="evenodd" d="M20.6654 19.1651C20.4664 19.0611 19.4877 18.5587 19.3053 18.4893C19.1228 18.42 18.9901 18.3853 18.8574 18.5933C18.7247 18.8012 18.3432 19.2691 18.2271 19.4077C18.111 19.5463 17.9949 19.5637 17.7958 19.4596C17.5968 19.3557 16.9554 19.1364 16.1951 18.4287C15.6033 17.8779 15.2039 17.1978 15.0877 16.9898C14.9716 16.7819 15.0753 16.6695 15.175 16.5659C15.2645 16.4728 15.3741 16.3233 15.4736 16.202C15.5731 16.0808 15.6063 15.994 15.6727 15.8555C15.739 15.7169 15.7059 15.5955 15.6561 15.4916C15.6063 15.3876 15.2082 14.3653 15.0424 13.9493C14.8807 13.5443 14.7166 13.5992 14.5944 13.5928C14.4785 13.5867 14.3456 13.5855 14.2129 13.5855C14.0803 13.5855 13.8646 13.6375 13.6822 13.8454C13.4997 14.0533 12.9854 14.5559 12.9854 15.5782C12.9854 16.6006 13.6987 17.5883 13.7982 17.7269C13.8977 17.8655 15.2019 19.9635 17.1987 20.8632C17.6736 21.0772 18.0444 21.205 18.3335 21.3007C18.8103 21.4588 19.2443 21.4365 19.5872 21.383C19.9697 21.3234 20.765 20.8806 20.9308 20.3954C21.0967 19.9102 21.0967 19.4943 21.0469 19.4077C20.9972 19.3211 20.8645 19.2691 20.6654 19.1651Z" fill="#012D22"/>
</svg>
